<svg width="14" height="14" viewBox="0 0 14 14" fill="none" xmlns="http://www.w3.org/2000/svg">
<g clip-path="url(#clip0_239_143)">
<path d="M5.14697 6.99987C5.14697 6.68014 5.14697 6.52023 5.19399 6.3941C5.25667 6.22596 5.37692 6.09234 5.52826 6.02269C5.64177 5.97046 5.78568 5.97046 6.07344 5.97046H7.92638C8.21414 5.97046 8.35808 5.97046 8.47156 6.02269C8.62293 6.09234 8.74316 6.22596 8.80583 6.3941C8.85285 6.52023 8.85286 6.68014 8.85286 6.99987C8.85286 7.31961 8.85285 7.47951 8.80583 7.60564C8.74316 7.77378 8.62293 7.9074 8.47156 7.97705C8.35808 8.02928 8.21414 8.02928 7.92638 8.02928H6.07344C5.78568 8.02928 5.64177 8.02928 5.52826 7.97705C5.37692 7.9074 5.25667 7.77378 5.19399 7.60564C5.14697 7.47951 5.14697 7.31961 5.14697 6.99987Z" stroke="#F5F7F8" stroke-width="1.58118"/>
<path d="M12.25 3.5686V7.68625C12.25 10.2743 12.25 11.5685 11.5264 12.3724C10.8028 13.1764 9.63809 13.1764 7.30882 13.1764H6.69118M1.75 3.5686V7.68625C1.75 10.2743 1.75 11.5685 2.47362 12.3724C2.90891 12.8561 3.50381 13.0488 4.41581 13.1256" stroke="#F5F7F8" stroke-width="1.58118" stroke-linecap="round"/>
<path d="M6.99996 0.823486H2.05878C1.47645 0.823486 1.1853 0.823486 1.00439 1.02449C0.823486 1.2255 0.823486 1.54901 0.823486 2.19604C0.823486 2.84306 0.823486 3.16657 1.00439 3.36758C1.1853 3.56858 1.47645 3.56858 2.05878 3.56858H11.9411C12.5235 3.56858 12.8146 3.56858 12.9955 3.36758C13.1764 3.16657 13.1764 2.84306 13.1764 2.19604C13.1764 1.54901 13.1764 1.2255 12.9955 1.02449C12.8146 0.823486 12.5235 0.823486 11.9411 0.823486H9.47055" stroke="#F5F7F8" stroke-width="1.58118" stroke-linecap="round"/>
</g>
<defs>
<clipPath id="clip0_239_143">
<rect width="14" height="14" fill="white"/>
</clipPath>
</defs>
</svg>
