<svg width="14" height="14" viewBox="0 0 14 14" fill="none" xmlns="http://www.w3.org/2000/svg">
<g clip-path="url(#clip0_239_132)">
<path d="M10.7059 5.76465H7.61768" stroke="#F5F7F8" stroke-width="1.58118" stroke-linecap="round"/>
<path d="M5.76465 1.44116H9.77935C10.0662 1.44116 10.2096 1.44116 10.33 1.45702C11.1615 1.56649 11.8158 2.22076 11.9252 3.05224C11.9411 3.17266 11.9411 3.31608 11.9411 3.60293" stroke="#F5F7F8" stroke-width="1.58118"/>
<path d="M13.1764 6.87513C13.1764 5.24926 13.1764 4.43632 12.7012 3.90791C12.6574 3.85931 12.6112 3.81305 12.5627 3.76933C12.0342 3.29407 11.2213 3.29407 9.59539 3.29407H9.36456C8.65196 3.29407 8.2957 3.29407 7.96373 3.19943C7.78135 3.14745 7.6055 3.07463 7.43979 2.98243C7.13813 2.81457 6.88619 2.56264 6.38231 2.05878L6.04242 1.71892C5.87356 1.55005 5.78912 1.4656 5.70039 1.39203C5.31781 1.07489 4.84848 0.880491 4.35369 0.834217C4.23893 0.823486 4.11951 0.823486 3.88068 0.823486C3.33559 0.823486 3.06304 0.823486 2.83602 0.866318C1.83662 1.05488 1.05488 1.83662 0.866318 2.83602C0.823486 3.06304 0.823486 3.33559 0.823486 3.88068M13.1711 9.47055C13.1489 11.0021 13.0353 11.8703 12.4528 12.4528C11.7292 13.1764 10.5645 13.1764 8.23525 13.1764H5.76466C3.43537 13.1764 2.27072 13.1764 1.54711 12.4528C0.823486 11.7292 0.823486 10.5645 0.823486 8.23525V6.38231" stroke="#F5F7F8" stroke-width="1.58118" stroke-linecap="round"/>
</g>
<defs>
<clipPath id="clip0_239_132">
<rect width="14" height="14" fill="white"/>
</clipPath>
</defs>
</svg>
