<svg width="14" height="14" viewBox="0 0 14 14" fill="none" xmlns="http://www.w3.org/2000/svg">
<g clip-path="url(#clip0_239_141)">
<path d="M0 13.3C0 13.4856 0.0737498 13.6637 0.205025 13.7949C0.336301 13.9263 0.514349 14 0.7 14H13.3C13.4856 14 13.6637 13.9263 13.7949 13.7949C13.9263 13.6637 14 13.4856 14 13.3V4.2C14 4.01436 13.9262 3.83635 13.7949 3.7051L10.2949 0.2051C10.1636 0.0738155 9.98564 3.96462e-05 9.8 0H0.7C0.514349 0 0.336301 0.0737498 0.205025 0.205025C0.0737498 0.336301 0 0.514349 0 0.7V13.3ZM9.1 12.6H4.9V9.1H9.1V12.6ZM1.4 1.4H9.5102L12.6 4.4898V12.6H10.5V8.4C10.5 8.21435 10.4263 8.0363 10.2949 7.90503C10.1637 7.77375 9.98564 7.7 9.8 7.7H4.2C4.01435 7.7 3.8363 7.77375 3.70503 7.90503C3.57375 8.0363 3.5 8.21435 3.5 8.4V12.6H1.4V1.4ZM3.5 4.9C3.5 4.71435 3.57375 4.5363 3.70503 4.40503C3.8363 4.27375 4.01435 4.2 4.2 4.2H7C7.18565 4.2 7.3637 4.27375 7.49497 4.40503C7.62625 4.5363 7.7 4.71435 7.7 4.9C7.7 5.08565 7.62625 5.2637 7.49497 5.39497C7.3637 5.52625 7.18565 5.6 7 5.6H4.2C4.01435 5.6 3.8363 5.52625 3.70503 5.39497C3.57375 5.2637 3.5 5.08565 3.5 4.9Z" fill="#F5F7F8" stroke="#F5F7F8" stroke-width="0.000597333"/>
</g>
<defs>
<clipPath id="clip0_239_141">
<rect width="14" height="14" fill="white"/>
</clipPath>
</defs>
</svg>
