<svg width="14" height="14" viewBox="0 0 17 17" fill="none" xmlns="http://www.w3.org/2000/svg"><path d="M6.25 8.49994C6.25 8.11169 6.25 7.91752 6.30709 7.76436C6.38321 7.56019 6.52922 7.39794 6.71299 7.31336C6.85082 7.24994 7.02557 7.24994 7.375 7.24994H9.625C9.97442 7.24994 10.1492 7.24994 10.287 7.31336C10.4708 7.39794 10.6168 7.56019 10.6929 7.76436C10.75 7.91752 10.75 8.11169 10.75 8.49994C10.75 8.88819 10.75 9.08236 10.6929 9.23552C10.6168 9.43969 10.4708 9.60194 10.287 9.68652C10.1492 9.74994 9.97442 9.74994 9.625 9.74994H7.375C7.02557 9.74994 6.85082 9.74994 6.71299 9.68652C6.52922 9.60194 6.38321 9.43969 6.30709 9.23552C6.25 9.08236 6.25 8.88819 6.25 8.49994Z" stroke="#F5F7F8" stroke-width="1.92" /><path d="M14.875 4.33337V9.33337C14.875 12.476 14.875 14.0475 13.9963 15.0237C13.1177 16 11.7034 16 8.875 16H8.125M2.125 4.33337V9.33337C2.125 12.476 2.125 14.0475 3.00368 15.0237C3.53225 15.611 4.25463 15.845 5.36206 15.9383" stroke="#F5F7F8" stroke-width="1.92" stroke-linecap="round" /><path d="M8.5 1H2.5C1.79289 1 1.43934 1 1.21967 1.24408C1 1.48816 1 1.88099 1 2.66667C1 3.45234 1 3.84517 1.21967 4.08926C1.43934 4.33333 1.79289 4.33333 2.5 4.33333H14.5C15.2071 4.33333 15.5606 4.33333 15.7803 4.08926C16 3.84517 16 3.45234 16 2.66667C16 1.88099 16 1.48816 15.7803 1.24408C15.5606 1 15.2071 1 14.5 1H11.5" stroke="#F5F7F8" stroke-width="1.92" stroke-linecap="round" /></svg>