<svg width="22" height="22" viewBox="0 0 22 22" fill="none" xmlns="http://www.w3.org/2000/svg">
<g clip-path="url(#clip0_239_110)">
<mask id="mask0_239_110" style="mask-type:luminance" maskUnits="userSpaceOnUse" x="0" y="0" width="22" height="22">
<path d="M22 0H0V22H22V0Z" fill="white"/>
</mask>
<g mask="url(#mask0_239_110)">
<path d="M8 10.9999C8 10.4822 8 10.2234 8.07612 10.0191C8.17761 9.74692 8.37229 9.53059 8.61732 9.41781C8.80109 9.33325 9.0341 9.33325 9.5 9.33325H12.5C12.9659 9.33325 13.1989 9.33325 13.3827 9.41781C13.6277 9.53059 13.8224 9.74692 13.9239 10.0191C14 10.2234 14 10.4822 14 10.9999C14 11.5176 14 11.7765 13.9239 11.9807C13.8224 12.2529 13.6277 12.4692 13.3827 12.582C13.1989 12.6666 12.9659 12.6666 12.5 12.6666H9.5C9.0341 12.6666 8.80109 12.6666 8.61732 12.582C8.37229 12.4692 8.17761 12.2529 8.07612 11.9807C8 11.7765 8 11.5176 8 10.9999Z" stroke="#3A3A3A" stroke-width="1.92"/>
<path d="M19.5 5.44458V12.1112C19.5 16.3014 19.5 18.3967 18.3284 19.6983C17.1569 21.0001 15.2712 21.0001 11.5 21.0001H10.5M2.5 5.44458V12.1112C2.5 16.3014 2.5 18.3967 3.67157 19.6983C4.37634 20.4814 5.3395 20.7934 6.81608 20.9178" stroke="#3A3A3A" stroke-width="1.92" stroke-linecap="round"/>
<path d="M11 1H3C2.05719 1 1.58579 1 1.29289 1.32543C1 1.65088 1 2.17466 1 3.22222C1 4.26979 1 4.79357 1.29289 5.11901C1.58579 5.44444 2.05719 5.44444 3 5.44444H19C19.9428 5.44444 20.4142 5.44444 20.7071 5.11901C21 4.79357 21 4.26979 21 3.22222C21 2.17466 21 1.65088 20.7071 1.32543C20.4142 1 19.9428 1 19 1H15" stroke="#3A3A3A" stroke-width="1.92" stroke-linecap="round"/>
</g>
</g>
<defs>
<clipPath id="clip0_239_110">
<rect width="22" height="22" fill="white"/>
</clipPath>
</defs>
</svg>
