<svg width="22" height="17" viewBox="0 0 22 17" fill="none" xmlns="http://www.w3.org/2000/svg">
<g clip-path="url(#clip0_239_118)">
<path d="M21 7.33377V4.98383C21 4.11861 19.8807 3.41721 18.5 3.41721H3.5C2.11929 3.41721 1 4.11861 1 4.98383V7.33377M21 7.33377V14.3836C21 15.2488 19.8807 15.9502 18.5 15.9502H3.5C2.11929 15.9502 1 15.2488 1 14.3836V7.33377M21 7.33377H1M6 1.85059V4.98383M16 1.85059V4.98383" stroke="#3A3A3A" stroke-width="1.92" stroke-linecap="round"/>
<path d="M6.625 8.90039H4.125C3.77982 8.90039 3.5 9.07574 3.5 9.29205V10.8587C3.5 11.075 3.77982 11.2503 4.125 11.2503H6.625C6.97018 11.2503 7.25 11.075 7.25 10.8587V9.29205C7.25 9.07574 6.97018 8.90039 6.625 8.90039Z" fill="#3A3A3A"/>
<path d="M12.25 8.90039H9.75C9.40482 8.90039 9.125 9.07574 9.125 9.29205V10.8587C9.125 11.075 9.40482 11.2503 9.75 11.2503H12.25C12.5952 11.2503 12.875 11.075 12.875 10.8587V9.29205C12.875 9.07574 12.5952 8.90039 12.25 8.90039Z" fill="#3A3A3A"/>
<path d="M17.875 8.90039H15.375C15.0298 8.90039 14.75 9.07574 14.75 9.29205V10.8587C14.75 11.075 15.0298 11.2503 15.375 11.2503H17.875C18.2202 11.2503 18.5 11.075 18.5 10.8587V9.29205C18.5 9.07574 18.2202 8.90039 17.875 8.90039Z" fill="#3A3A3A"/>
</g>
<defs>
<clipPath id="clip0_239_118">
<rect width="22" height="17" fill="white"/>
</clipPath>
</defs>
</svg>
