<svg width="24" height="22" viewBox="0 0 24 22" fill="none" xmlns="http://www.w3.org/2000/svg">
<g clip-path="url(#clip0_239_2)">
<path fill-rule="evenodd" clip-rule="evenodd" d="M14.8789 1.43451C16.9655 -0.47817 20.3485 -0.47817 22.435 1.43451C24.5217 3.3472 24.5217 6.44828 22.435 8.36095L12.0204 17.9077C11.4334 18.4458 11.075 18.7744 10.6755 19.0601C10.2048 19.3967 9.69544 19.6852 9.15656 19.9207C8.69916 20.1204 8.21819 20.2674 7.43063 20.508L3.76529 21.628L2.88529 21.8969C2.09761 22.1375 1.22919 21.9495 0.642098 21.4114C0.0549903 20.8732 -0.150011 20.0772 0.112549 19.3552L1.62765 15.1885C1.89012 14.4667 2.05042 14.0258 2.2684 13.6065C2.52523 13.1125 2.84 12.6456 3.20716 12.2141C3.51878 11.8479 3.87728 11.5193 4.46433 10.9812L14.8789 1.43451ZM3.71782 19.6548L2.55847 18.592L3.55745 15.8447C3.8483 15.045 3.96844 14.7197 4.12544 14.4178C4.31799 14.0474 4.55397 13.6974 4.82923 13.3738C5.05366 13.1101 5.31727 12.8662 5.96764 12.2699L14.0467 4.86422C14.3801 5.63107 14.9444 6.5566 15.8959 7.42878C16.8473 8.30098 17.8571 8.81818 18.6935 9.12387L10.6146 16.5296C9.9641 17.1258 9.69804 17.3674 9.41032 17.5732C9.05739 17.8255 8.67556 18.0419 8.27154 18.2184C7.94211 18.3623 7.58733 18.4724 6.71476 18.7389L3.71782 19.6548ZM20.3328 7.6213C20.1629 7.58712 19.9506 7.5357 19.7092 7.45893C19.0454 7.24782 18.1722 6.84863 17.3505 6.09539C16.5287 5.34214 16.0933 4.54175 15.863 3.93325C15.7792 3.71196 15.7231 3.51732 15.6858 3.36164L16.3336 2.76791C17.6168 1.59164 19.6973 1.59164 20.9805 2.76791C22.2636 3.94418 22.2636 5.85129 20.9805 7.02755L20.3328 7.6213Z" fill="#3A3A3A" stroke="#3A3A3A" stroke-width="0.00064"/>
</g>
<defs>
<clipPath id="clip0_239_2">
<rect width="24" height="22" fill="white"/>
</clipPath>
</defs>
</svg>
