<svg width="300" height="300" viewBox="0 0 300 300" fill="none" xmlns="http://www.w3.org/2000/svg">
<path d="M162.696 227.25H100.206V275.448H162.696V227.25Z" fill="#3A3A3A"/>
<path d="M147.042 275.112C146.958 275.112 146.886 264.366 146.886 251.112C146.886 237.858 146.958 227.112 147.042 227.112C147.126 227.112 147.198 237.858 147.198 251.112C147.198 264.366 147.126 275.112 147.042 275.112Z" fill="#F5F7F8"/>
<path d="M157.398 264.48H152.61V269.898H157.398V264.48Z" fill="#5D5A5A"/>
<path d="M126.372 227.376H119.274V237.66H126.372V227.376Z" fill="#F5F7F8"/>
<path d="M126.372 265.02H119.274V275.304H126.372V265.02Z" fill="#F5F7F8"/>
<path d="M276.09 215.166H197.292V275.94H276.09V215.166Z" fill="#3A3A3A"/>
<path d="M256.344 275.508C256.26 275.508 256.188 261.966 256.188 245.256C256.188 228.546 256.26 215.004 256.344 215.004C256.428 215.004 256.5 228.546 256.5 245.256C256.5 261.966 256.434 275.508 256.344 275.508Z" fill="#F5F7F8"/>
<path d="M269.406 262.104H263.364V268.932H269.406V262.104Z" fill="#5D5A5A"/>
<path d="M230.28 215.322H221.328V228.288H230.28V215.322Z" fill="#F5F7F8"/>
<path d="M230.28 262.788H221.328V275.754H230.28V262.788Z" fill="#F5F7F8"/>
<path d="M41.7121 228.3C41.7578 227.715 41.7578 227.127 41.7121 226.542C41.6461 225.414 41.4901 223.788 41.1721 221.79C40.7796 219.454 40.2548 217.142 39.6001 214.866C38.8434 212.064 37.8746 209.325 36.7021 206.67C34.6946 201.779 31.8137 197.294 28.2001 193.434C27.5731 192.771 26.9037 192.15 26.1961 191.574C25.8901 191.31 25.5961 191.052 25.3441 190.848L24.6001 190.314C24.1331 189.958 23.6374 189.64 23.1181 189.366C23.0341 189.48 25.2121 190.764 27.9601 193.686C31.4555 197.582 34.2599 202.046 36.2521 206.886C37.4044 209.523 38.3766 212.235 39.1621 215.004C39.8219 217.259 40.3685 219.546 40.8001 221.856C41.1601 223.83 41.4001 225.456 41.4961 226.56C41.5217 227.145 41.594 227.727 41.7121 228.3Z" fill="#F5F7F8"/>
<path d="M24.9661 269.082V271.164H26.5021H57.0421V269.082H24.9661Z" fill="#F5F7F8"/>
<path d="M28.002 274.608L26.502 270.936H55.872L54.12 274.608H28.002Z" fill="#F5F7F8"/>
<path d="M227.053 34.0806L222.025 34.1078L222.161 59.1274L227.189 59.1002L227.053 34.0806Z" fill="#F5F7F8"/>
<path d="M253.17 59.124H161.514V63.156H253.17V59.124Z" fill="#F5F7F8"/>
<path d="M180.24 61.062H176.52V74.82H180.24V61.062Z" fill="#F5F7F8"/>
<path d="M235.782 61.062H232.062V74.82H235.782V61.062Z" fill="#F5F7F8"/>
<path d="M239.76 36.54C237.163 36.7234 234.557 36.7234 231.96 36.54C234.557 36.3646 237.163 36.3646 239.76 36.54Z" fill="#F5F7F8"/>
<path d="M239.76 35.4C238.462 35.5313 237.157 35.5754 235.854 35.532C234.551 35.5752 233.246 35.5311 231.948 35.4C234.545 35.2166 237.151 35.2166 239.748 35.4H239.76Z" fill="#F5F7F8"/>
<path d="M239.76 54.8579C237.163 55.0413 234.557 55.0413 231.96 54.8579C234.557 54.6825 237.163 54.6825 239.76 54.8579Z" fill="#F5F7F8"/>
<path d="M239.76 53.6881C237.163 53.8635 234.557 53.8635 231.96 53.6881C234.557 53.5047 237.163 53.5047 239.76 53.6881Z" fill="#F5F7F8"/>
<path d="M229.368 32.0819C230.167 32.0819 230.814 31.4345 230.814 30.6359C230.814 29.8373 230.167 29.1899 229.368 29.1899C228.57 29.1899 227.922 29.8373 227.922 30.6359C227.922 31.4345 228.57 32.0819 229.368 32.0819Z" fill="#F5F7F8"/>
<path d="M278.796 275.61C278.796 275.7 221.124 275.766 150.006 275.766C78.8881 275.766 21.2041 275.7 21.2041 275.61C21.2041 275.52 78.8641 275.454 150.006 275.454C221.148 275.454 278.796 275.526 278.796 275.61Z" fill="#2E2F30"/>
<path d="M260.262 259.908C260.29 259.821 260.326 259.736 260.37 259.656C260.454 259.476 260.568 259.236 260.706 258.93C261.123 257.993 261.459 257.021 261.708 256.026C262.368 253.446 262.602 249.504 261.624 244.824C261.093 242.272 260.397 239.757 259.542 237.294C258.666 234.624 257.64 231.792 256.806 228.726C255.864 225.528 255.409 222.207 255.456 218.874C255.582 215.388 256.614 211.914 257.748 208.446C258.882 204.978 260.052 201.6 260.4 198.18C260.787 194.9 260.127 191.582 258.516 188.7C257.016 185.934 255.126 183.564 253.716 181.116C252.396 178.841 251.423 176.382 250.83 173.82C249.978 170.11 249.915 166.264 250.644 162.528C250.909 161.161 251.311 159.825 251.844 158.538C251.828 158.628 251.804 158.716 251.772 158.802L251.532 159.564C251.328 160.236 251.058 161.244 250.8 162.564C250.129 166.283 250.229 170.1 251.094 173.778C251.696 176.309 252.673 178.736 253.992 180.978C255.402 183.378 257.298 185.778 258.834 188.556C260.485 191.497 261.163 194.884 260.772 198.234C260.418 201.702 259.242 205.116 258.108 208.578C256.974 212.04 255.954 215.478 255.828 218.904C255.774 222.204 256.219 225.493 257.148 228.66C257.97 231.708 258.978 234.54 259.848 237.222C260.695 239.698 261.377 242.228 261.888 244.794C262.842 249.51 262.572 253.494 261.888 256.08C261.62 257.077 261.261 258.047 260.814 258.978L260.442 259.692C260.39 259.771 260.33 259.843 260.262 259.908Z" fill="#2E2F30"/>
<path d="M255.636 183.534C255.636 183.534 252.768 174.348 257.916 168.972C257.956 168.929 258.007 168.897 258.064 168.882C258.12 168.866 258.18 168.866 258.237 168.882C258.294 168.898 258.345 168.93 258.384 168.973C258.424 169.017 258.451 169.07 258.462 169.128C258.738 170.646 259.08 175.266 255.636 183.534Z" fill="#F5F7F8"/>
<path d="M257.358 172.032C257.349 172.601 257.285 173.168 257.166 173.724C256.974 174.894 256.752 176.262 256.512 177.774C256.272 179.286 256.05 180.66 255.864 181.824C255.812 182.392 255.711 182.954 255.564 183.504C255.508 182.937 255.52 182.365 255.6 181.8C255.696 180.75 255.882 179.31 256.14 177.726C256.398 176.142 256.68 174.726 256.902 173.688C256.99 173.12 257.143 172.565 257.358 172.032Z" fill="#2E2F30"/>
<path d="M259.008 205.2C259.008 205.2 260.766 195.738 267.834 193.398C267.89 193.379 267.95 193.375 268.007 193.388C268.065 193.4 268.118 193.429 268.16 193.47C268.203 193.511 268.233 193.563 268.247 193.62C268.262 193.678 268.26 193.738 268.242 193.794C267.774 195.252 265.92 199.494 259.008 205.2Z" fill="#F5F7F8"/>
<path d="M265.908 195.828C265.634 196.328 265.312 196.8 264.948 197.238L262.47 200.508L260.01 203.79C259.7 204.266 259.349 204.714 258.96 205.128C259.179 204.6 259.461 204.1 259.8 203.64C260.4 202.758 261.216 201.57 262.2 200.292C263.184 199.014 264.078 197.892 264.756 197.076C265.093 196.619 265.479 196.2 265.908 195.828Z" fill="#2E2F30"/>
<path d="M257.1 228.918C257.1 228.918 256.032 219.354 262.116 215.064C262.163 215.027 262.219 215.005 262.278 214.999C262.338 214.993 262.397 215.005 262.45 215.032C262.503 215.059 262.547 215.101 262.578 215.152C262.608 215.204 262.622 215.263 262.62 215.322C262.602 216.864 262.056 221.46 257.1 228.918Z" fill="#F5F7F8"/>
<path d="M261 217.956C260.888 218.515 260.718 219.06 260.49 219.582L259.074 223.434C258.546 224.874 258.072 226.176 257.67 227.286C257.516 227.832 257.315 228.364 257.07 228.876C257.126 228.307 257.25 227.747 257.442 227.208C257.736 226.2 258.192 224.808 258.75 223.308C259.308 221.808 259.854 220.458 260.268 219.492C260.459 218.956 260.704 218.442 261 217.956Z" fill="#2E2F30"/>
<path d="M262.422 252.786C262.422 252.786 261.702 243.186 267.93 239.118C267.979 239.084 268.036 239.065 268.095 239.062C268.154 239.059 268.213 239.073 268.264 239.102C268.316 239.13 268.359 239.173 268.388 239.225C268.417 239.276 268.43 239.335 268.428 239.394C268.356 240.936 267.648 245.514 262.422 252.786Z" fill="#F5F7F8"/>
<path d="M266.694 241.974C266.56 242.528 266.369 243.067 266.124 243.582C265.68 244.674 265.152 245.982 264.57 247.38C263.988 248.778 263.478 250.08 263.034 251.178C262.856 251.72 262.629 252.244 262.356 252.744C262.436 252.177 262.583 251.621 262.794 251.088C263.124 250.092 263.628 248.724 264.24 247.242C264.852 245.76 265.44 244.428 265.89 243.48C266.104 242.951 266.373 242.446 266.694 241.974Z" fill="#2E2F30"/>
<path d="M251.508 175.464C251.508 175.464 243 171 242.814 163.566C242.813 163.508 242.829 163.45 242.858 163.4C242.888 163.35 242.93 163.308 242.981 163.28C243.032 163.252 243.09 163.238 243.148 163.239C243.206 163.241 243.263 163.259 243.312 163.29C244.578 164.166 248.094 167.19 251.508 175.464Z" fill="#F5F7F8"/>
<path d="M244.584 166.122C244.983 166.53 245.339 166.978 245.646 167.46C246.342 168.414 247.152 169.542 248.046 170.784L250.446 174.096C250.812 174.532 251.137 175 251.418 175.494C250.979 175.129 250.586 174.712 250.248 174.252C249.57 173.448 248.682 172.296 247.746 170.994C246.81 169.692 245.988 168.486 245.424 167.604C245.093 167.141 244.812 166.644 244.584 166.122Z" fill="#2E2F30"/>
<path d="M260.67 195.186C260.67 195.186 251.886 191.256 251.268 183.834C251.263 183.776 251.274 183.717 251.3 183.665C251.327 183.612 251.367 183.568 251.416 183.537C251.466 183.506 251.523 183.49 251.582 183.489C251.64 183.488 251.698 183.504 251.748 183.534C253.062 184.332 256.752 187.128 260.67 195.186Z" fill="#F5F7F8"/>
<path d="M253.2 186.282C253.623 186.663 254.005 187.087 254.34 187.548L256.944 190.722L259.554 193.884C259.945 194.298 260.298 194.746 260.61 195.222C260.15 194.882 259.731 194.49 259.362 194.052C258.642 193.284 257.682 192.192 256.668 190.95C255.654 189.708 254.766 188.55 254.142 187.704C253.776 187.266 253.46 186.789 253.2 186.282Z" fill="#2E2F30"/>
<path d="M255.6 217.2C255.6 217.2 249.6 209.7 252.402 202.8C252.424 202.746 252.461 202.699 252.508 202.664C252.555 202.63 252.611 202.609 252.669 202.604C252.728 202.599 252.786 202.61 252.838 202.636C252.891 202.662 252.935 202.702 252.966 202.752C253.8 204.054 255.798 208.23 255.6 217.2Z" fill="#F5F7F8"/>
<path d="M253.008 205.848C253.213 206.381 253.362 206.934 253.452 207.498C253.704 208.65 253.998 210.006 254.322 211.506C254.646 213.006 254.952 214.356 255.204 215.508C255.365 216.055 255.475 216.615 255.534 217.182C255.271 216.672 255.069 216.132 254.934 215.574C254.64 214.56 254.28 213.174 253.944 211.578C253.608 209.982 253.344 208.578 253.176 207.546C253.058 206.988 253.002 206.418 253.008 205.848Z" fill="#2E2F30"/>
<path d="M261.6 243.066C261.6 243.066 252.882 238.992 252.39 231.564C252.384 231.505 252.395 231.445 252.422 231.392C252.448 231.339 252.489 231.294 252.539 231.262C252.59 231.231 252.648 231.215 252.708 231.215C252.767 231.215 252.826 231.232 252.876 231.264C254.166 232.086 257.808 234.948 261.6 243.066Z" fill="#F5F7F8"/>
<path d="M254.262 234.036C254.674 234.429 255.048 234.861 255.378 235.326L257.928 238.536L260.484 241.746C260.868 242.166 261.214 242.62 261.516 243.102C261.069 242.752 260.666 242.349 260.316 241.902C259.602 241.122 258.666 240.012 257.67 238.752C256.674 237.492 255.81 236.322 255.198 235.464C254.831 235.026 254.517 234.547 254.262 234.036Z" fill="#2E2F30"/>
<path d="M278.946 205.242C278.946 205.242 278.946 205.314 278.946 205.452C278.946 205.59 278.946 205.818 278.946 206.052C278.946 206.652 278.886 207.414 278.844 208.386C278.736 210.438 278.574 213.3 278.388 216.72C277.788 220.2 275.988 224.058 273.588 227.808C271.842 230.568 269.988 233.076 268.428 235.41C267.004 237.458 265.725 239.604 264.6 241.83C263.855 243.334 263.252 244.905 262.8 246.522C262.65 247.092 262.53 247.542 262.464 247.848C262.436 248.007 262.393 248.164 262.338 248.316C262.34 248.154 262.36 247.993 262.398 247.836C262.44 247.524 262.53 247.068 262.668 246.486C263.072 244.841 263.645 243.243 264.378 241.716C265.493 239.472 266.77 237.312 268.2 235.254C269.772 232.902 271.59 230.388 273.33 227.646C275.7 223.914 277.464 220.116 278.13 216.69C278.37 213.276 278.568 210.42 278.73 208.368C278.808 207.396 278.874 206.622 278.922 206.04C278.922 205.8 278.964 205.596 278.982 205.44C278.962 205.376 278.949 205.309 278.946 205.242Z" fill="#2E2F30"/>
<path d="M273.756 227.118C273.756 227.118 277.446 218.238 272.808 212.412C272.772 212.365 272.724 212.33 272.669 212.309C272.613 212.288 272.553 212.283 272.496 212.294C272.438 212.305 272.384 212.332 272.341 212.372C272.297 212.412 272.266 212.463 272.25 212.52C271.836 214.008 271.074 218.574 273.756 227.118Z" fill="#F5F7F8"/>
<path d="M273.084 215.514C273.243 216.062 273.342 216.625 273.378 217.194C273.51 218.238 273.654 219.684 273.768 221.286C273.882 222.888 273.936 224.34 273.936 225.396C273.972 225.966 273.938 226.538 273.834 227.1C273.73 226.54 273.68 225.972 273.684 225.402C273.606 224.202 273.51 222.84 273.408 221.31C273.306 219.78 273.21 218.394 273.126 217.218C273.056 216.653 273.042 216.082 273.084 215.514Z" fill="#2E2F30"/>
<g opacity="0.3">
<path d="M273.756 227.118C273.756 227.118 277.446 218.238 272.808 212.412C272.772 212.365 272.724 212.33 272.669 212.309C272.613 212.288 272.553 212.283 272.496 212.294C272.438 212.305 272.384 212.332 272.341 212.372C272.297 212.412 272.266 212.463 272.25 212.52C271.836 214.008 271.074 218.574 273.756 227.118Z" fill="#5D5A5A"/>
</g>
<path d="M262.326 248.532C262.326 248.532 265.284 239.376 260.184 233.952C260.144 233.909 260.094 233.877 260.037 233.861C259.981 233.845 259.921 233.844 259.865 233.86C259.809 233.876 259.757 233.906 259.717 233.949C259.677 233.992 259.65 234.045 259.638 234.102C259.35 235.614 258.96 240.234 262.326 248.532Z" fill="#F5F7F8"/>
<path d="M260.712 237C260.92 237.533 261.065 238.089 261.144 238.656C261.36 239.682 261.618 241.116 261.864 242.7C262.11 244.284 262.278 245.73 262.368 246.78C262.446 247.347 262.456 247.921 262.398 248.49C262.255 247.939 262.159 247.377 262.11 246.81C261.936 245.64 261.732 244.272 261.51 242.754C261.288 241.236 261.072 239.868 260.91 238.698C260.788 238.14 260.722 237.571 260.712 237Z" fill="#2E2F30"/>
<g opacity="0.3">
<path d="M262.326 248.532C262.326 248.532 265.284 239.376 260.184 233.952C260.144 233.909 260.094 233.877 260.037 233.861C259.981 233.845 259.921 233.844 259.865 233.86C259.809 233.876 259.757 233.906 259.717 233.949C259.677 233.992 259.65 234.045 259.638 234.102C259.35 235.614 258.96 240.234 262.326 248.532Z" fill="#5D5A5A"/>
</g>
<path d="M278.46 216.264C278.46 216.264 286.338 210.744 285.546 203.34C285.54 203.282 285.518 203.226 285.482 203.18C285.447 203.133 285.399 203.098 285.344 203.077C285.29 203.056 285.23 203.05 285.173 203.06C285.115 203.071 285.062 203.097 285.018 203.136C283.872 204.168 280.8 207.6 278.46 216.264Z" fill="#F5F7F8"/>
<g opacity="0.3">
<path d="M278.46 216.264C278.46 216.264 286.338 210.744 285.546 203.34C285.54 203.282 285.518 203.226 285.482 203.18C285.447 203.133 285.399 203.098 285.344 203.077C285.29 203.056 285.23 203.05 285.173 203.06C285.115 203.071 285.062 203.097 285.018 203.136C283.872 204.168 280.8 207.6 278.46 216.264Z" fill="#5D5A5A"/>
</g>
<path d="M284.118 206.106C283.962 206.656 283.742 207.185 283.464 207.684C283.014 208.632 282.36 209.928 281.598 211.344C280.836 212.76 280.104 214.014 279.54 214.902C279.263 215.401 278.926 215.864 278.538 216.282C278.749 215.754 279.01 215.248 279.318 214.77C279.882 213.732 280.548 212.52 281.28 211.17L283.236 207.57C283.482 207.054 283.777 206.564 284.118 206.106Z" fill="#2E2F30"/>
<path d="M265.506 239.454C265.506 239.454 275.01 237.972 277.554 230.976C277.575 230.921 277.58 230.862 277.569 230.805C277.558 230.748 277.532 230.694 277.493 230.651C277.454 230.608 277.404 230.576 277.348 230.559C277.292 230.542 277.233 230.541 277.176 230.556C275.694 231 271.398 232.71 265.506 239.454Z" fill="#F5F7F8"/>
<g opacity="0.3">
<path d="M265.506 239.454C265.506 239.454 275.01 237.972 277.554 230.976C277.575 230.921 277.58 230.862 277.569 230.805C277.558 230.748 277.532 230.694 277.493 230.651C277.454 230.608 277.404 230.576 277.348 230.559C277.292 230.542 277.233 230.541 277.176 230.556C275.694 231 271.398 232.71 265.506 239.454Z" fill="#5D5A5A"/>
</g>
<path d="M275.058 232.83C274.673 233.25 274.242 233.627 273.774 233.952C272.952 234.612 271.794 235.488 270.492 236.424C269.19 237.36 267.972 238.158 267.072 238.71C266.603 239.037 266.095 239.305 265.56 239.508C265.986 239.128 266.446 238.789 266.934 238.494L270.282 236.13L273.624 233.73C274.069 233.38 274.549 233.078 275.058 232.83Z" fill="#2E2F30"/>
<path d="M256.434 256.95L253.662 275.61H270.942L268.704 256.95H256.434Z" fill="#F5F7F8"/>
<path d="M269.4 262.728C269.4 262.83 266.28 262.908 262.434 262.908C258.588 262.908 255.462 262.83 255.462 262.728C257.781 262.55 260.108 262.49 262.434 262.548C264.757 262.49 267.082 262.55 269.4 262.728Z" fill="#2E2F30"/>
<path d="M269.736 264.216C269.736 264.318 266.514 264.396 262.536 264.396C258.558 264.396 255.336 264.318 255.336 264.216C255.336 264.114 258.558 264.036 262.536 264.036C266.514 264.036 269.736 264.114 269.736 264.216Z" fill="#2E2F30"/>
<path d="M202.542 75.924C202.542 75.924 202.38 75.924 202.068 75.924C201.612 75.897 201.155 75.897 200.7 75.924C198.938 76.0272 197.206 76.4331 195.582 77.124C193.007 78.2033 190.766 79.9492 189.09 82.182C188.056 83.5762 187.288 85.1482 186.822 86.82C185.772 90.8023 186.339 95.0383 188.4 98.604C188.962 99.5912 189.647 100.503 190.44 101.316C191.24 102.178 192.171 102.907 193.2 103.476C194.255 104.07 195.451 104.37 196.662 104.346C197.91 104.331 199.108 103.847 200.016 102.99C200.455 102.53 200.799 101.988 201.029 101.395C201.258 100.802 201.369 100.17 201.354 99.534C201.345 98.2133 200.925 96.928 200.154 95.856C198.6 93.666 196.08 92.196 193.398 91.404C190.617 90.6229 187.68 90.5816 184.878 91.284C183.448 91.6561 182.069 92.2043 180.774 92.916C179.466 93.6539 178.279 94.5866 177.252 95.682C177.006 95.964 176.724 96.222 176.502 96.534L175.824 97.446C175.412 98.0887 175.043 98.7581 174.72 99.45C174.078 100.855 173.64 102.344 173.418 103.872C172.982 106.925 173.398 110.04 174.618 112.872C175.784 115.64 177.816 117.955 180.408 119.472C181.665 120.19 183.068 120.615 184.512 120.714C185.928 120.793 187.336 120.455 188.562 119.742C189.779 119.07 190.74 118.015 191.298 116.742C191.824 115.487 191.86 114.08 191.4 112.8C190.926 111.565 190.15 110.467 189.144 109.608C188.168 108.764 187.042 108.111 185.826 107.682C183.453 106.934 180.915 106.89 178.518 107.556C176.275 108.164 174.215 109.311 172.518 110.898C170.972 112.379 169.794 114.202 169.08 116.22C167.83 119.722 167.888 123.557 169.242 127.02C170.298 129.605 171.998 131.877 174.18 133.62C175.554 134.722 177.085 135.614 178.722 136.266C179.286 136.476 179.724 136.632 180.024 136.716L180.468 136.86C180.468 136.86 180.312 136.83 180.012 136.746C179.569 136.627 179.132 136.485 178.704 136.32C177.046 135.697 175.495 134.818 174.108 133.716C171.889 131.974 170.156 129.691 169.074 127.086C167.696 123.591 167.625 119.715 168.876 116.172C169.592 114.123 170.782 112.273 172.35 110.772C174.071 109.153 176.162 107.979 178.44 107.352C180.887 106.669 183.48 106.711 185.904 107.472C187.156 107.909 188.315 108.579 189.318 109.446C190.364 110.333 191.169 111.471 191.658 112.752C192.151 114.09 192.13 115.563 191.598 116.886C191.006 118.209 190.002 119.306 188.736 120.012C187.465 120.753 186.005 121.107 184.536 121.032C183.057 120.929 181.62 120.49 180.336 119.748C177.684 118.21 175.602 115.854 174.402 113.034C173.155 110.15 172.728 106.978 173.166 103.866C173.395 102.307 173.843 100.788 174.498 99.354C174.828 98.6475 175.204 97.9639 175.626 97.308L176.322 96.378C176.544 96.06 176.832 95.778 177.084 95.502C178.135 94.3858 179.349 93.4351 180.684 92.682C182.009 91.9567 183.42 91.4003 184.884 91.026C187.739 90.3104 190.732 90.3539 193.566 91.152C196.302 91.968 198.864 93.462 200.478 95.73C201.289 96.8468 201.73 98.1897 201.738 99.57C201.767 100.928 201.256 102.243 200.316 103.224C199.356 104.125 198.092 104.633 196.776 104.646C195.516 104.675 194.272 104.362 193.176 103.74C192.123 103.159 191.17 102.411 190.356 101.526C189.553 100.694 188.857 99.7651 188.286 98.76C186.188 95.1281 185.619 90.8118 186.702 86.76C187.182 85.0689 187.969 83.4805 189.024 82.074C190.731 79.8243 193.01 78.0735 195.624 77.004C197.262 76.3264 199.007 75.9445 200.778 75.876C201.237 75.8457 201.698 75.8457 202.158 75.876L202.542 75.924Z" fill="#3A3A3A"/>
<path d="M222.576 135.96H138.45V200.844H222.576V135.96Z" fill="#F5F7F8"/>
<path d="M138.45 135.96L153.99 150.456H236.688L222.576 135.96H138.45Z" fill="#F5F7F8"/>
<path d="M138.45 135.96L222.6 135.81H222.666L222.714 135.852L236.682 150.198L236.826 150.348L237.084 150.612H236.712L154.014 150.546H153.978L138.45 135.96L154.05 150.36H153.984L236.682 150.3L236.574 150.564L236.424 150.414L222.462 136.068L222.57 136.116L138.45 135.96Z" fill="#2E2F30"/>
<path d="M163.722 165.882C163.266 165.899 162.835 166.093 162.522 166.424C162.208 166.755 162.037 167.196 162.045 167.652C162.053 168.108 162.24 168.543 162.566 168.862C162.891 169.182 163.329 169.361 163.785 169.361C164.241 169.361 164.679 169.182 165.004 168.862C165.329 168.543 165.516 168.108 165.525 167.652C165.533 167.196 165.362 166.755 165.048 166.424C164.735 166.093 164.304 165.899 163.848 165.882" fill="#3A3A3A"/>
<path d="M183.6 165.882C183.146 165.899 182.717 166.094 182.405 166.424C182.093 166.754 181.924 167.194 181.932 167.648C181.941 168.102 182.127 168.534 182.451 168.853C182.776 169.171 183.212 169.349 183.666 169.349C184.12 169.349 184.556 169.171 184.88 168.853C185.204 168.534 185.391 168.102 185.4 167.648C185.408 167.194 185.238 166.754 184.927 166.424C184.615 166.094 184.186 165.899 183.732 165.882" fill="#3A3A3A"/>
<path d="M183.714 181.41C183.367 180.085 182.803 178.826 182.046 177.684C181.203 176.463 180.121 175.426 178.866 174.636C177.351 173.631 175.585 173.071 173.767 173.022C171.95 172.972 170.155 173.433 168.588 174.354C167.293 175.077 166.157 176.052 165.246 177.222C164.425 178.321 163.795 179.55 163.38 180.858C163.385 180.76 163.401 180.664 163.428 180.57C163.485 180.3 163.56 180.033 163.65 179.772C163.979 178.808 164.459 177.903 165.072 177.09C165.976 175.865 167.127 174.843 168.45 174.09C170.058 173.13 171.906 172.647 173.778 172.698C175.65 172.749 177.469 173.332 179.022 174.378C180.299 175.199 181.391 176.278 182.226 177.546C182.796 178.392 183.227 179.324 183.504 180.306C183.578 180.572 183.636 180.843 183.678 181.116C183.699 181.213 183.711 181.311 183.714 181.41Z" fill="#3A3A3A"/>
<path opacity="0.5" d="M138.642 136.674L153.522 155.538H222.576V150.456H153.99L138.642 136.674Z" fill="#5D5A5A"/>
<path d="M205.986 200.7C205.902 200.7 205.83 189.414 205.83 175.5C205.83 161.586 205.902 150.3 205.986 150.3C206.07 150.3 206.148 161.58 206.148 175.5C206.148 189.42 206.076 200.7 205.986 200.7Z" fill="#2E2F30"/>
<path d="M219.198 185.988H211.782V194.37H219.198V185.988Z" fill="#3A3A3A"/>
<path d="M138.45 135.96L121.182 150.456H138.45V135.96Z" fill="#F5F7F8"/>
<g opacity="0.4">
<path d="M138.45 135.96L121.182 150.456H138.45V135.96Z" fill="#5D5A5A"/>
</g>
<path d="M225.06 200.844H128.334V275.448H225.06V200.844Z" fill="#F5F7F8"/>
<path opacity="0.3" d="M225.06 200.844H128.334V275.448H225.06V200.844Z" fill="#5D5A5A"/>
<path d="M200.826 274.92C200.742 274.92 200.67 258.294 200.67 237.786C200.67 217.278 200.742 200.646 200.826 200.646C200.91 200.646 200.982 217.272 200.982 237.786C200.982 258.3 200.91 274.92 200.826 274.92Z" fill="#2E2F30"/>
<path d="M216.858 258.468H209.442V266.85H216.858V258.468Z" fill="#3A3A3A"/>
<path d="M168.828 201.042H157.842V216.96H168.828V201.042Z" fill="#3A3A3A"/>
<path d="M168.828 259.308H157.842V275.226H168.828V259.308Z" fill="#3A3A3A"/>
<path d="M224.22 200.844H223.968H223.242L220.452 200.874L210.174 200.922L176.28 201L142.374 200.958L132.102 200.91L129.312 200.88L132.102 200.85L142.374 200.802L176.28 200.754L210.174 200.802L220.452 200.85L223.242 200.88H223.968L224.22 200.844Z" fill="#2E2F30"/>
<path d="M149 122.573L116.65 114.56H116.889C108.536 119.909 98.8773 122.83 88.9791 122.999C83.1192 123.026 77.2883 122.17 71.6803 120.458C61.8207 117.271 53.0736 111.308 46.4726 103.275C39.8716 95.242 35.6927 85.4741 34.4297 75.1259C33.4378 67.2997 34.168 59.3495 36.5686 51.8391C38.9691 44.3287 42.9812 37.4419 48.3204 31.667C51.1271 28.5631 54.2727 25.788 57.6975 23.3944C59.4292 22.3 61.161 21.1686 62.9664 20.2226L65.7113 18.8871L67.0746 18.2194L68.5116 17.7C75.9091 14.813 83.8445 13.5911 91.7609 14.1202C102.37 14.8138 112.539 18.6539 120.984 25.1565C129.429 31.6592 135.774 40.5333 139.218 50.6606C141.131 56.3258 142.138 62.261 142.202 68.2445C142.248 78.1884 139.564 87.9518 134.446 96.4566V96.1598C143.436 112.501 147.968 120.755 148.982 122.573C147.931 120.718 143.234 112.612 133.93 96.4381V96.2897V96.1413C138.864 87.7188 141.413 78.0964 141.299 68.3187C141.214 62.431 140.194 56.5949 138.278 51.0315C134.871 41.1114 128.634 32.4236 120.346 26.0558C112.059 19.688 102.09 15.9233 91.6872 15.2331C83.9267 14.7239 76.1494 15.9266 68.8985 18.7573L67.4983 19.2581L66.1535 19.9258L63.4638 21.2242C61.6215 22.1702 60.0003 23.2646 58.287 24.3404C54.9283 26.6698 51.8387 29.3699 49.0757 32.3904C43.8341 38.0596 39.8944 44.8195 37.5354 52.1917C35.1763 59.5639 34.4557 67.3681 35.4246 75.0517C37.1325 89.1286 44.3057 101.952 55.3763 110.72C60.3256 114.669 65.9426 117.685 71.9566 119.624C77.4639 121.338 83.1962 122.207 88.9607 122.202C98.7403 122.096 108.302 119.279 116.595 114.059H116.705H116.908L149 122.573Z" fill="#3A3A3A"/>
<path d="M105.338 70.9729L106.435 89.1695C106.479 89.8872 106.783 90.5641 107.289 91.0726C107.795 91.581 108.469 91.886 109.184 91.93C109.936 91.9726 110.676 91.7244 111.251 91.2363C111.827 90.7483 112.194 90.0574 112.278 89.3057L114.288 71.072C114.323 70.7457 114.288 70.4158 114.186 70.104C114.085 69.7921 113.918 69.5056 113.698 69.2633C113.478 69.021 113.209 68.8285 112.909 68.6985C112.609 68.5686 112.284 68.5042 111.958 68.5096H107.557C107.248 68.5188 106.944 68.5906 106.664 68.7207C106.384 68.8508 106.132 69.0364 105.925 69.2665C105.718 69.4966 105.559 69.7663 105.458 70.0596C105.357 70.3528 105.316 70.6635 105.338 70.9729Z" fill="#F5F7F8"/>
<path d="M113.967 102.093C113.691 102.924 113.176 103.655 112.487 104.192C111.798 104.73 110.965 105.05 110.095 105.112C109.225 105.175 108.355 104.977 107.597 104.543C106.839 104.11 106.225 103.461 105.835 102.677C105.444 101.894 105.293 101.012 105.401 100.143C105.509 99.2731 105.872 98.4554 106.442 97.7928C107.013 97.1301 107.767 96.6523 108.608 96.4196C109.449 96.1869 110.34 96.2099 111.168 96.4856C111.719 96.6688 112.228 96.9594 112.667 97.3405C113.106 97.7216 113.465 98.1859 113.725 98.7067C113.985 99.2275 114.14 99.7947 114.182 100.376C114.223 100.957 114.15 101.54 113.967 102.093Z" fill="#F5F7F8"/>
<path d="M44.6284 49.4678C44.6284 47.9232 45.0431 46.715 45.8726 45.8433C46.702 44.9673 47.7726 44.5293 49.0845 44.5293C49.9435 44.5293 50.7179 44.7345 51.4077 45.145C52.0975 45.5555 52.6222 46.1289 52.9819 46.8652C53.3459 47.5973 53.5278 48.4289 53.5278 49.3599C53.5278 50.3035 53.3374 51.1478 52.9565 51.8926C52.5757 52.6374 52.0361 53.2023 51.3379 53.5874C50.6396 53.9683 49.8864 54.1587 49.0781 54.1587C48.2021 54.1587 47.4193 53.9471 46.7295 53.5239C46.0397 53.1007 45.5171 52.5231 45.1616 51.791C44.8062 51.0589 44.6284 50.2845 44.6284 49.4678ZM45.8979 49.4868C45.8979 50.6082 46.1984 51.4927 46.7993 52.1401C47.4045 52.7834 48.1619 53.105 49.0718 53.105C49.9985 53.105 50.7603 52.7791 51.3569 52.1274C51.9578 51.4757 52.2583 50.5511 52.2583 49.3535C52.2583 48.596 52.1292 47.9359 51.8711 47.373C51.6172 46.806 51.2427 46.368 50.7476 46.0591C50.2567 45.7459 49.7044 45.5894 49.0908 45.5894C48.2191 45.5894 47.4679 45.8898 46.8374 46.4907C46.2111 47.0874 45.8979 48.0861 45.8979 49.4868ZM55.3651 56.5835V47.2588H56.4061V48.1348C56.6516 47.792 56.9287 47.536 57.2377 47.3667C57.5466 47.1932 57.9211 47.1064 58.3612 47.1064C58.9367 47.1064 59.4445 47.2546 59.8846 47.5508C60.3247 47.847 60.6569 48.266 60.8812 48.8076C61.1055 49.3451 61.2176 49.9354 61.2176 50.5786C61.2176 51.2684 61.0928 51.8905 60.8431 52.4448C60.5977 52.995 60.238 53.4181 59.764 53.7144C59.2943 54.0063 58.7992 54.1523 58.2787 54.1523C57.8978 54.1523 57.555 54.0719 57.2504 53.9111C56.9499 53.7503 56.7023 53.5472 56.5077 53.3018V56.5835H55.3651ZM56.3998 50.6675C56.3998 51.535 56.5754 52.1761 56.9266 52.5908C57.2779 53.0055 57.7032 53.2129 58.2025 53.2129C58.7103 53.2129 59.1441 52.9992 59.5038 52.5718C59.8677 52.1401 60.0497 51.4736 60.0497 50.5723C60.0497 49.7132 59.8719 49.07 59.5165 48.6426C59.1652 48.2152 58.7442 48.0015 58.2533 48.0015C57.7666 48.0015 57.335 48.23 56.9584 48.687C56.586 49.1398 56.3998 49.8 56.3998 50.6675ZM62.9914 56.5835V47.2588H64.0324V48.1348C64.2779 47.792 64.5551 47.536 64.864 47.3667C65.1729 47.1932 65.5474 47.1064 65.9875 47.1064C66.563 47.1064 67.0709 47.2546 67.511 47.5508C67.9511 47.847 68.2833 48.266 68.5075 48.8076C68.7318 49.3451 68.844 49.9354 68.844 50.5786C68.844 51.2684 68.7191 51.8905 68.4695 52.4448C68.224 52.995 67.8643 53.4181 67.3904 53.7144C66.9206 54.0063 66.4255 54.1523 65.905 54.1523C65.5241 54.1523 65.1814 54.0719 64.8767 53.9111C64.5762 53.7503 64.3287 53.5472 64.134 53.3018V56.5835H62.9914ZM64.0261 50.6675C64.0261 51.535 64.2017 52.1761 64.5529 52.5908C64.9042 53.0055 65.3295 53.2129 65.8288 53.2129C66.3366 53.2129 66.7704 52.9992 67.1301 52.5718C67.494 52.1401 67.676 51.4736 67.676 50.5723C67.676 49.7132 67.4983 49.07 67.1428 48.6426C66.7916 48.2152 66.3705 48.0015 65.8796 48.0015C65.393 48.0015 64.9613 48.23 64.5847 48.687C64.2123 49.1398 64.0261 49.8 64.0261 50.6675ZM70.1607 51.9878L71.2906 51.8101C71.3541 52.2629 71.5297 52.6099 71.8175 52.8511C72.1095 53.0923 72.5157 53.2129 73.0362 53.2129C73.561 53.2129 73.9503 53.1071 74.2042 52.8955C74.4581 52.6797 74.585 52.4279 74.585 52.1401C74.585 51.882 74.4729 51.6789 74.2486 51.5308C74.092 51.4292 73.7027 51.3001 73.0806 51.1436C72.2428 50.932 71.6609 50.75 71.335 50.5977C71.0134 50.4411 70.768 50.2274 70.5987 49.9565C70.4337 49.6815 70.3512 49.3789 70.3512 49.0488C70.3512 48.7484 70.4189 48.4712 70.5543 48.2173C70.6939 47.9591 70.8822 47.7454 71.1192 47.5762C71.297 47.445 71.5382 47.335 71.8429 47.2461C72.1518 47.153 72.4818 47.1064 72.8331 47.1064C73.3621 47.1064 73.8254 47.1826 74.2232 47.335C74.6252 47.4873 74.9215 47.6947 75.1119 47.957C75.3023 48.2152 75.4335 48.5622 75.5054 48.998L74.3883 49.1504C74.3375 48.8034 74.1894 48.5326 73.9439 48.3379C73.7027 48.1432 73.3599 48.0459 72.9156 48.0459C72.3909 48.0459 72.0164 48.1326 71.7921 48.3062C71.5678 48.4797 71.4556 48.6828 71.4556 48.9155C71.4556 49.0636 71.5022 49.1969 71.5953 49.3154C71.6884 49.4382 71.8344 49.5397 72.0333 49.6201C72.1475 49.6624 72.484 49.7598 73.0426 49.9121C73.8508 50.1279 74.4137 50.3057 74.731 50.4453C75.0526 50.5807 75.3044 50.7796 75.4864 51.042C75.6684 51.3044 75.7594 51.6302 75.7594 52.0195C75.7594 52.4004 75.6472 52.7601 75.4229 53.0986C75.2029 53.4329 74.8834 53.6932 74.4644 53.8794C74.0455 54.0614 73.5715 54.1523 73.0426 54.1523C72.1666 54.1523 71.498 53.9704 71.0367 53.6064C70.5797 53.2425 70.2877 52.703 70.1607 51.9878ZM77.8061 54V52.6987H79.1074V54C79.1074 54.4782 79.0227 54.8633 78.8535 55.1553C78.6842 55.4515 78.4155 55.68 78.0473 55.8408L77.7299 55.3521C77.9711 55.2463 78.1489 55.0897 78.2631 54.8823C78.3774 54.6792 78.4409 54.3851 78.4536 54H77.8061ZM88.0187 52.978L88.1838 53.9873C87.8621 54.055 87.5744 54.0889 87.3205 54.0889C86.9058 54.0889 86.5841 54.0233 86.3556 53.8921C86.1271 53.7609 85.9663 53.5895 85.8732 53.3779C85.7801 53.1621 85.7336 52.7114 85.7336 52.0259V48.1475H84.8957V47.2588H85.7336V45.5894L86.8698 44.9038V47.2588H88.0187V48.1475H86.8698V52.0894C86.8698 52.4152 86.8888 52.6247 86.9269 52.7178C86.9692 52.8109 87.0348 52.8849 87.1237 52.9399C87.2168 52.995 87.348 53.0225 87.5172 53.0225C87.6442 53.0225 87.8114 53.0076 88.0187 52.978ZM89.5322 54V44.6943H90.6748V48.0332C91.208 47.4154 91.8809 47.1064 92.6934 47.1064C93.1927 47.1064 93.6265 47.2059 93.9946 47.4048C94.3628 47.5994 94.6252 47.8703 94.7818 48.2173C94.9426 48.5643 95.023 49.0679 95.023 49.728V54H93.8804V49.728C93.8804 49.1567 93.7556 48.742 93.5059 48.4839C93.2604 48.2215 92.9113 48.0903 92.4585 48.0903C92.12 48.0903 91.8005 48.1792 91.5 48.3569C91.2038 48.5304 90.9922 48.7674 90.8653 49.0679C90.7383 49.3683 90.6748 49.783 90.6748 50.312V54H89.5322ZM97.1649 46.0083V44.6943H98.3075V46.0083H97.1649ZM97.1649 54V47.2588H98.3075V54H97.1649ZM99.9861 51.9878L101.116 51.8101C101.179 52.2629 101.355 52.6099 101.643 52.8511C101.935 53.0923 102.341 53.2129 102.862 53.2129C103.386 53.2129 103.776 53.1071 104.03 52.8955C104.283 52.6797 104.41 52.4279 104.41 52.1401C104.41 51.882 104.298 51.6789 104.074 51.5308C103.917 51.4292 103.528 51.3001 102.906 51.1436C102.068 50.932 101.486 50.75 101.16 50.5977C100.839 50.4411 100.593 50.2274 100.424 49.9565C100.259 49.6815 100.177 49.3789 100.177 49.0488C100.177 48.7484 100.244 48.4712 100.38 48.2173C100.519 47.9591 100.708 47.7454 100.945 47.5762C101.122 47.445 101.364 47.335 101.668 47.2461C101.977 47.153 102.307 47.1064 102.658 47.1064C103.187 47.1064 103.651 47.1826 104.049 47.335C104.451 47.4873 104.747 47.6947 104.937 47.957C105.128 48.2152 105.259 48.5622 105.331 48.998L104.214 49.1504C104.163 48.8034 104.015 48.5326 103.769 48.3379C103.528 48.1432 103.185 48.0459 102.741 48.0459C102.216 48.0459 101.842 48.1326 101.617 48.3062C101.393 48.4797 101.281 48.6828 101.281 48.9155C101.281 49.0636 101.328 49.1969 101.421 49.3154C101.514 49.4382 101.66 49.5397 101.859 49.6201C101.973 49.6624 102.309 49.7598 102.868 49.9121C103.676 50.1279 104.239 50.3057 104.556 50.4453C104.878 50.5807 105.13 50.7796 105.312 51.042C105.494 51.3044 105.585 51.6302 105.585 52.0195C105.585 52.4004 105.473 52.7601 105.248 53.0986C105.028 53.4329 104.709 53.6932 104.29 53.8794C103.871 54.0614 103.397 54.1523 102.868 54.1523C101.992 54.1523 101.323 53.9704 100.862 53.6064C100.405 53.2425 100.113 52.703 99.9861 51.9878ZM49.2559 66.5308L50.3794 66.6768C50.2567 67.4512 49.9414 68.0584 49.4336 68.4985C48.93 68.9344 48.3101 69.1523 47.5737 69.1523C46.6512 69.1523 45.9085 68.8519 45.3457 68.251C44.7871 67.6458 44.5078 66.7804 44.5078 65.6548C44.5078 64.9269 44.6284 64.29 44.8696 63.7441C45.1108 63.1982 45.4769 62.7899 45.9678 62.519C46.4629 62.244 47.0003 62.1064 47.5801 62.1064C48.3122 62.1064 48.911 62.2926 49.3765 62.665C49.842 63.0332 50.1403 63.5579 50.2715 64.2393L49.1606 64.4106C49.0549 63.9578 48.8665 63.6172 48.5957 63.3887C48.3291 63.1602 48.0054 63.0459 47.6245 63.0459C47.049 63.0459 46.5814 63.2533 46.2217 63.668C45.862 64.0785 45.6821 64.7301 45.6821 65.623C45.6821 66.5286 45.8556 67.1867 46.2026 67.5972C46.5496 68.0076 47.0024 68.2129 47.561 68.2129C48.0096 68.2129 48.3841 68.0754 48.6846 67.8003C48.985 67.5252 49.1755 67.1021 49.2559 66.5308ZM56.1459 68.1685C55.7227 68.5282 55.3143 68.7821 54.9208 68.9302C54.5314 69.0783 54.1125 69.1523 53.6639 69.1523C52.9234 69.1523 52.3542 68.9725 51.9564 68.6128C51.5586 68.2489 51.3597 67.7855 51.3597 67.2227C51.3597 66.8926 51.4338 66.5921 51.5819 66.3213C51.7342 66.0462 51.931 65.8262 52.1722 65.6611C52.4177 65.4961 52.6927 65.3713 52.9974 65.2866C53.2217 65.2274 53.5602 65.1702 54.013 65.1152C54.9356 65.0052 55.6148 64.874 56.0506 64.7217C56.0549 64.5651 56.057 64.4657 56.057 64.4233C56.057 63.9578 55.9491 63.6299 55.7333 63.4395C55.4413 63.1813 55.0075 63.0522 54.432 63.0522C53.8946 63.0522 53.4968 63.1475 53.2386 63.3379C52.9847 63.5241 52.7964 63.8563 52.6737 64.3345L51.5565 64.1821C51.6581 63.7039 51.8252 63.3188 52.058 63.0269C52.2907 62.7306 52.6271 62.5042 53.0672 62.3477C53.5074 62.1868 54.0173 62.1064 54.597 62.1064C55.1726 62.1064 55.6402 62.1742 55.9999 62.3096C56.3596 62.445 56.624 62.6164 56.7933 62.8237C56.9626 63.0269 57.0811 63.285 57.1488 63.5981C57.1869 63.7928 57.2059 64.144 57.2059 64.6519V66.1753C57.2059 67.2375 57.2292 67.9103 57.2757 68.1938C57.3265 68.4731 57.4239 68.7419 57.5677 69H56.3744C56.2559 68.763 56.1797 68.4858 56.1459 68.1685ZM56.0506 65.6167C55.6359 65.786 55.0139 65.9299 54.1844 66.0483C53.7147 66.116 53.3825 66.1922 53.1879 66.2769C52.9932 66.3615 52.843 66.4863 52.7372 66.6514C52.6314 66.8122 52.5785 66.992 52.5785 67.1909C52.5785 67.4956 52.6927 67.7495 52.9212 67.9526C53.154 68.1558 53.4925 68.2573 53.9369 68.2573C54.377 68.2573 54.7684 68.1621 55.1112 67.9717C55.454 67.777 55.7058 67.5125 55.8666 67.1782C55.9893 66.9201 56.0506 66.5392 56.0506 66.0356V65.6167ZM61.8679 67.978L62.0329 68.9873C61.7113 69.055 61.4236 69.0889 61.1696 69.0889C60.7549 69.0889 60.4333 69.0233 60.2048 68.8921C59.9763 68.7609 59.8155 68.5895 59.7224 68.3779C59.6293 68.1621 59.5827 67.7114 59.5827 67.0259V63.1475H58.7448V62.2588H59.5827V60.5894L60.719 59.9038V62.2588H61.8679V63.1475H60.719V67.0894C60.719 67.4152 60.738 67.6247 60.7761 67.7178C60.8184 67.8109 60.884 67.8849 60.9729 67.9399C61.066 67.995 61.1972 68.0225 61.3664 68.0225C61.4934 68.0225 61.6605 68.0076 61.8679 67.978ZM67.9962 66.8291L69.1768 66.9751C68.9906 67.6649 68.6457 68.2002 68.1422 68.5811C67.6386 68.9619 66.9954 69.1523 66.2125 69.1523C65.2265 69.1523 64.4436 68.8498 63.8638 68.2446C63.2883 67.6353 63.0006 66.7826 63.0006 65.6865C63.0006 64.5524 63.2926 63.6722 63.8765 63.0459C64.4605 62.4196 65.218 62.1064 66.149 62.1064C67.0504 62.1064 67.7867 62.4132 68.358 63.0269C68.9293 63.6405 69.2149 64.5037 69.2149 65.6167C69.2149 65.6844 69.2128 65.786 69.2086 65.9214H64.1812C64.2235 66.6619 64.433 67.229 64.8096 67.6226C65.1863 68.0161 65.656 68.2129 66.2188 68.2129C66.6378 68.2129 66.9954 68.1029 67.2916 67.8828C67.5878 67.6628 67.8227 67.3115 67.9962 66.8291ZM64.2447 64.9819H68.0089C67.9581 64.4149 67.8142 63.9896 67.5772 63.7061C67.2133 63.266 66.7415 63.0459 66.1617 63.0459C65.637 63.0459 65.1947 63.2215 64.835 63.5728C64.4796 63.924 64.2828 64.3937 64.2447 64.9819ZM70.7983 69.5586L71.9091 69.7236C71.9557 70.0664 72.0847 70.3161 72.2963 70.4727C72.5799 70.6842 72.9671 70.79 73.4579 70.79C73.9869 70.79 74.3953 70.6842 74.683 70.4727C74.9708 70.2611 75.1655 69.9648 75.267 69.584C75.3263 69.3512 75.3538 68.8625 75.3496 68.1177C74.8502 68.7059 74.2281 69 73.4833 69C72.5566 69 71.8393 68.6657 71.3315 67.9971C70.8237 67.3285 70.5698 66.5265 70.5698 65.5913C70.5698 64.9481 70.6861 64.3556 70.9189 63.814C71.1516 63.2681 71.4881 62.847 71.9282 62.5508C72.3725 62.2546 72.893 62.1064 73.4897 62.1064C74.2853 62.1064 74.9412 62.4281 75.4575 63.0713V62.2588H76.5112V68.0859C76.5112 69.1354 76.4033 69.8781 76.1874 70.314C75.9759 70.7541 75.6373 71.1011 75.1718 71.355C74.7106 71.6089 74.1414 71.7358 73.4643 71.7358C72.6603 71.7358 72.0107 71.5539 71.5156 71.1899C71.0204 70.8302 70.7814 70.2865 70.7983 69.5586ZM71.7441 65.5088C71.7441 66.3932 71.9197 67.0386 72.2709 67.4448C72.6222 67.8511 73.0623 68.0542 73.5912 68.0542C74.116 68.0542 74.5561 67.8532 74.9116 67.4512C75.267 67.0449 75.4448 66.4102 75.4448 65.5469C75.4448 64.7217 75.2607 64.0996 74.8925 63.6807C74.5286 63.2617 74.0885 63.0522 73.5722 63.0522C73.0644 63.0522 72.6328 63.2596 72.2773 63.6743C71.9218 64.0848 71.7441 64.6963 71.7441 65.5088ZM78.2088 65.6294C78.2088 64.381 78.5558 63.4564 79.2498 62.8555C79.8296 62.3561 80.5363 62.1064 81.3699 62.1064C82.2967 62.1064 83.0542 62.4111 83.6424 63.0205C84.2306 63.6257 84.5247 64.4635 84.5247 65.5342C84.5247 66.4017 84.3935 67.0851 84.1312 67.5845C83.873 68.0796 83.4943 68.4647 82.9949 68.7397C82.4998 69.0148 81.9581 69.1523 81.3699 69.1523C80.4262 69.1523 79.6624 68.8498 79.0784 68.2446C78.4987 67.6395 78.2088 66.7677 78.2088 65.6294ZM79.3831 65.6294C79.3831 66.4927 79.5714 67.1401 79.948 67.5718C80.3247 67.9992 80.7986 68.2129 81.3699 68.2129C81.937 68.2129 82.4088 67.9971 82.7854 67.5654C83.1621 67.1338 83.3504 66.4757 83.3504 65.5913C83.3504 64.7576 83.16 64.1271 82.7791 63.6997C82.4025 63.2681 81.9327 63.0522 81.3699 63.0522C80.7986 63.0522 80.3247 63.266 79.948 63.6934C79.5714 64.1208 79.3831 64.7661 79.3831 65.6294ZM86.2477 69V62.2588H87.276V63.2808C87.5384 62.8026 87.7796 62.4873 87.9997 62.335C88.224 62.1826 88.4694 62.1064 88.736 62.1064C89.1211 62.1064 89.5125 62.2292 89.9103 62.4746L89.5168 63.5347C89.2375 63.3696 88.9582 63.2871 88.6789 63.2871C88.4292 63.2871 88.2049 63.3633 88.006 63.5156C87.8071 63.6637 87.6654 63.8711 87.5807 64.1377C87.4538 64.5439 87.3903 64.9883 87.3903 65.4707V69H86.2477ZM90.9287 71.5962L90.8018 70.5234C91.0515 70.5911 91.2694 70.625 91.4556 70.625C91.7095 70.625 91.9126 70.5827 92.065 70.498C92.2173 70.4134 92.3421 70.2949 92.4395 70.1426C92.5114 70.0283 92.6278 69.7448 92.7886 69.292C92.8098 69.2285 92.8436 69.1354 92.8902 69.0127L90.3321 62.2588H91.5635L92.9663 66.1626C93.1483 66.6577 93.3112 67.1782 93.4551 67.7241C93.5863 67.1994 93.7429 66.6873 93.9248 66.188L95.3657 62.2588H96.5083L93.9439 69.1143C93.6688 69.8548 93.4551 70.3647 93.3028 70.644C93.0996 71.0207 92.8669 71.2957 92.6045 71.4692C92.3421 71.647 92.029 71.7358 91.6651 71.7358C91.445 71.7358 91.1996 71.6893 90.9287 71.5962ZM101.884 61.0083V59.6943H103.027V61.0083H101.884ZM101.884 69V62.2588H103.027V69H101.884ZM104.705 66.9878L105.835 66.8101C105.899 67.2629 106.074 67.6099 106.362 67.8511C106.654 68.0923 107.06 68.2129 107.581 68.2129C108.105 68.2129 108.495 68.1071 108.749 67.8955C109.003 67.6797 109.129 67.4279 109.129 67.1401C109.129 66.882 109.017 66.6789 108.793 66.5308C108.636 66.4292 108.247 66.3001 107.625 66.1436C106.787 65.932 106.205 65.75 105.879 65.5977C105.558 65.4411 105.312 65.2274 105.143 64.9565C104.978 64.6815 104.896 64.3789 104.896 64.0488C104.896 63.7484 104.963 63.4712 105.099 63.2173C105.238 62.9591 105.427 62.7454 105.664 62.5762C105.841 62.445 106.083 62.335 106.387 62.2461C106.696 62.153 107.026 62.1064 107.378 62.1064C107.907 62.1064 108.37 62.1826 108.768 62.335C109.17 62.4873 109.466 62.6947 109.656 62.957C109.847 63.2152 109.978 63.5622 110.05 63.998L108.933 64.1504C108.882 63.8034 108.734 63.5326 108.488 63.3379C108.247 63.1432 107.904 63.0459 107.46 63.0459C106.935 63.0459 106.561 63.1326 106.337 63.3062C106.112 63.4797 106 63.6828 106 63.9155C106 64.0636 106.047 64.1969 106.14 64.3154C106.233 64.4382 106.379 64.5397 106.578 64.6201C106.692 64.6624 107.028 64.7598 107.587 64.9121C108.395 65.1279 108.958 65.3057 109.275 65.4453C109.597 65.5807 109.849 65.7796 110.031 66.042C110.213 66.3044 110.304 66.6302 110.304 67.0195C110.304 67.4004 110.192 67.7601 109.967 68.0986C109.747 68.4329 109.428 68.6932 109.009 68.8794C108.59 69.0614 108.116 69.1523 107.587 69.1523C106.711 69.1523 106.042 68.9704 105.581 68.6064C105.124 68.2425 104.832 67.703 104.705 66.9878ZM49.2559 81.5308L50.3794 81.6768C50.2567 82.4512 49.9414 83.0584 49.4336 83.4985C48.93 83.9344 48.3101 84.1523 47.5737 84.1523C46.6512 84.1523 45.9085 83.8519 45.3457 83.251C44.7871 82.6458 44.5078 81.7804 44.5078 80.6548C44.5078 79.9269 44.6284 79.29 44.8696 78.7441C45.1108 78.1982 45.4769 77.7899 45.9678 77.519C46.4629 77.244 47.0003 77.1064 47.5801 77.1064C48.3122 77.1064 48.911 77.2926 49.3765 77.665C49.842 78.0332 50.1403 78.5579 50.2715 79.2393L49.1606 79.4106C49.0549 78.9578 48.8665 78.6172 48.5957 78.3887C48.3291 78.1602 48.0054 78.0459 47.6245 78.0459C47.049 78.0459 46.5814 78.2533 46.2217 78.668C45.862 79.0785 45.6821 79.7301 45.6821 80.623C45.6821 81.5286 45.8556 82.1867 46.2026 82.5972C46.5496 83.0076 47.0024 83.2129 47.561 83.2129C48.0096 83.2129 48.3841 83.0754 48.6846 82.8003C48.985 82.5252 49.1755 82.1021 49.2559 81.5308ZM56.1649 84V83.0098C55.6402 83.7715 54.9271 84.1523 54.0257 84.1523C53.628 84.1523 53.2556 84.0762 52.9086 83.9238C52.5658 83.7715 52.3098 83.5811 52.1405 83.3525C51.9754 83.1198 51.8591 82.8363 51.7914 82.502C51.7448 82.2777 51.7215 81.9222 51.7215 81.4355V77.2588H52.8641V80.9976C52.8641 81.5942 52.8874 81.9963 52.9339 82.2036C53.0059 82.5041 53.1582 82.741 53.391 82.9146C53.6237 83.0838 53.9115 83.1685 54.2543 83.1685C54.597 83.1685 54.9186 83.0817 55.2191 82.9082C55.5196 82.7305 55.7311 82.4914 55.8539 82.1909C55.9808 81.8862 56.0443 81.4461 56.0443 80.8706V77.2588H57.1869V84H56.1649ZM59.3606 84V77.2588H60.3889V78.2808C60.6513 77.8026 60.8925 77.4873 61.1125 77.335C61.3368 77.1826 61.5822 77.1064 61.8488 77.1064C62.2339 77.1064 62.6254 77.2292 63.0232 77.4746L62.6296 78.5347C62.3503 78.3696 62.071 78.2871 61.7917 78.2871C61.542 78.2871 61.3178 78.3633 61.1189 78.5156C60.92 78.6637 60.7782 78.8711 60.6936 79.1377C60.5666 79.5439 60.5031 79.9883 60.5031 80.4707V84H59.3606ZM64.0797 84V77.2588H65.108V78.2808C65.3704 77.8026 65.6116 77.4873 65.8316 77.335C66.0559 77.1826 66.3013 77.1064 66.5679 77.1064C66.953 77.1064 67.3445 77.2292 67.7423 77.4746L67.3487 78.5347C67.0694 78.3696 66.7901 78.2871 66.5108 78.2871C66.2611 78.2871 66.0369 78.3633 65.838 78.5156C65.6391 78.6637 65.4973 78.8711 65.4127 79.1377C65.2857 79.5439 65.2222 79.9883 65.2222 80.4707V84H64.0797ZM73.4262 81.8291L74.6069 81.9751C74.4207 82.6649 74.0758 83.2002 73.5722 83.5811C73.0686 83.9619 72.4254 84.1523 71.6425 84.1523C70.6565 84.1523 69.8736 83.8498 69.2939 83.2446C68.7184 82.6353 68.4306 81.7826 68.4306 80.6865C68.4306 79.5524 68.7226 78.6722 69.3066 78.0459C69.8906 77.4196 70.6481 77.1064 71.579 77.1064C72.4804 77.1064 73.2167 77.4132 73.788 78.0269C74.3593 78.6405 74.645 79.5037 74.645 80.6167C74.645 80.6844 74.6428 80.786 74.6386 80.9214H69.6113C69.6536 81.6619 69.8631 82.229 70.2397 82.6226C70.6163 83.0161 71.086 83.2129 71.6489 83.2129C72.0678 83.2129 72.4254 83.1029 72.7216 82.8828C73.0178 82.6628 73.2527 82.3115 73.4262 81.8291ZM69.6747 79.9819H73.4389C73.3881 79.4149 73.2442 78.9896 73.0073 78.7061C72.6433 78.266 72.1715 78.0459 71.5917 78.0459C71.067 78.0459 70.6248 78.2215 70.2651 78.5728C69.9096 78.924 69.7128 79.3937 69.6747 79.9819ZM76.4378 84V77.2588H77.4661V78.2173C77.9612 77.4767 78.6764 77.1064 79.6116 77.1064C80.0179 77.1064 80.3903 77.1805 80.7288 77.3286C81.0716 77.4725 81.3276 77.6629 81.4969 77.8999C81.6661 78.1369 81.7846 78.4183 81.8523 78.7441C81.8947 78.9557 81.9158 79.326 81.9158 79.855V84H80.7732V79.8994C80.7732 79.4339 80.7288 79.0869 80.6399 78.8584C80.5511 78.6257 80.3924 78.4416 80.1639 78.3062C79.9396 78.1665 79.6751 78.0967 79.3704 78.0967C78.8838 78.0967 78.4627 78.2511 78.1072 78.5601C77.756 78.869 77.5804 79.4551 77.5804 80.3184V84H76.4378ZM86.5588 82.978L86.7238 83.9873C86.4022 84.055 86.1144 84.0889 85.8605 84.0889C85.4458 84.0889 85.1242 84.0233 84.8957 83.8921C84.6671 83.7609 84.5063 83.5895 84.4132 83.3779C84.3201 83.1621 84.2736 82.7114 84.2736 82.0259V78.1475H83.4357V77.2588H84.2736V75.5894L85.4098 74.9038V77.2588H86.5588V78.1475H85.4098V82.0894C85.4098 82.4152 85.4289 82.6247 85.467 82.7178C85.5093 82.8109 85.5749 82.8849 85.6637 82.9399C85.7568 82.995 85.888 83.0225 86.0573 83.0225C86.1842 83.0225 86.3514 83.0076 86.5588 82.978ZM88.0469 84V74.6943H89.1895V84H88.0469ZM91.306 86.5962L91.1791 85.5234C91.4288 85.5911 91.6467 85.625 91.8329 85.625C92.0868 85.625 92.2899 85.5827 92.4423 85.498C92.5946 85.4134 92.7194 85.2949 92.8168 85.1426C92.8887 85.0283 93.0051 84.7448 93.1659 84.292C93.1871 84.2285 93.2209 84.1354 93.2675 84.0127L90.7094 77.2588H91.9408L93.3436 81.1626C93.5256 81.6577 93.6885 82.1782 93.8324 82.7241C93.9636 82.1994 94.1202 81.6873 94.3021 81.188L95.743 77.2588H96.8856L94.3212 84.1143C94.0461 84.8548 93.8324 85.3647 93.6801 85.644C93.4769 86.0207 93.2442 86.2957 92.9818 86.4692C92.7194 86.647 92.4063 86.7358 92.0424 86.7358C91.8223 86.7358 91.5769 86.6893 91.306 86.5962ZM106.87 81.8291L108.05 81.9751C107.864 82.6649 107.519 83.2002 107.016 83.5811C106.512 83.9619 105.869 84.1523 105.086 84.1523C104.1 84.1523 103.317 83.8498 102.737 83.2446C102.162 82.6353 101.874 81.7826 101.874 80.6865C101.874 79.5524 102.166 78.6722 102.75 78.0459C103.334 77.4196 104.092 77.1064 105.023 77.1064C105.924 77.1064 106.66 77.4132 107.232 78.0269C107.803 78.6405 108.088 79.5037 108.088 80.6167C108.088 80.6844 108.086 80.786 108.082 80.9214H103.055C103.097 81.6619 103.307 82.229 103.683 82.6226C104.06 83.0161 104.53 83.2129 105.092 83.2129C105.511 83.2129 105.869 83.1029 106.165 82.8828C106.461 82.6628 106.696 82.3115 106.87 81.8291ZM103.118 79.9819H106.882C106.832 79.4149 106.688 78.9896 106.451 78.7061C106.087 78.266 105.615 78.0459 105.035 78.0459C104.511 78.0459 104.068 78.2215 103.709 78.5728C103.353 78.924 103.156 79.3937 103.118 79.9819ZM109.881 84V77.2588H110.903V78.2046C111.115 77.8745 111.396 77.61 111.748 77.4111C112.099 77.208 112.499 77.1064 112.947 77.1064C113.447 77.1064 113.855 77.2101 114.172 77.4175C114.494 77.6248 114.72 77.9147 114.852 78.2871C115.385 77.5 116.079 77.1064 116.934 77.1064C117.602 77.1064 118.116 77.2926 118.476 77.665C118.836 78.0332 119.016 78.6024 119.016 79.3726V84H117.879V79.7534C117.879 79.2964 117.841 78.9684 117.765 78.7695C117.693 78.5664 117.56 78.4035 117.365 78.2808C117.171 78.158 116.942 78.0967 116.68 78.0967C116.206 78.0967 115.812 78.2554 115.499 78.5728C115.186 78.8859 115.029 79.3895 115.029 80.0835V84H113.887V79.6201C113.887 79.1123 113.794 78.7314 113.607 78.4775C113.421 78.2236 113.116 78.0967 112.693 78.0967C112.372 78.0967 112.073 78.1813 111.798 78.3506C111.527 78.5199 111.331 78.7674 111.208 79.0933C111.085 79.4191 111.024 79.8888 111.024 80.5024V84H109.881ZM121.1 86.5835V77.2588H122.141V78.1348C122.387 77.792 122.664 77.536 122.973 77.3667C123.282 77.1932 123.656 77.1064 124.097 77.1064C124.672 77.1064 125.18 77.2546 125.62 77.5508C126.06 77.847 126.392 78.266 126.617 78.8076C126.841 79.3451 126.953 79.9354 126.953 80.5786C126.953 81.2684 126.828 81.8905 126.578 82.4448C126.333 82.995 125.973 83.4181 125.499 83.7144C125.03 84.0063 124.534 84.1523 124.014 84.1523C123.633 84.1523 123.29 84.0719 122.986 83.9111C122.685 83.7503 122.438 83.5472 122.243 83.3018V86.5835H121.1ZM122.135 80.6675C122.135 81.535 122.311 82.1761 122.662 82.5908C123.013 83.0055 123.438 83.2129 123.938 83.2129C124.446 83.2129 124.879 82.9992 125.239 82.5718C125.603 82.1401 125.785 81.4736 125.785 80.5723C125.785 79.7132 125.607 79.07 125.252 78.6426C124.901 78.2152 124.479 78.0015 123.989 78.0015C123.502 78.0015 123.07 78.23 122.694 78.687C122.321 79.1398 122.135 79.8 122.135 80.6675ZM131.221 82.978L131.386 83.9873C131.065 84.055 130.777 84.0889 130.523 84.0889C130.108 84.0889 129.787 84.0233 129.558 83.8921C129.33 83.7609 129.169 83.5895 129.076 83.3779C128.983 83.1621 128.936 82.7114 128.936 82.0259V78.1475H128.098V77.2588H128.936V75.5894L130.072 74.9038V77.2588H131.221V78.1475H130.072V82.0894C130.072 82.4152 130.091 82.6247 130.13 82.7178C130.172 82.8109 130.237 82.8849 130.326 82.9399C130.419 82.995 130.551 83.0225 130.72 83.0225C130.847 83.0225 131.014 83.0076 131.221 82.978ZM132.684 86.5962L132.557 85.5234C132.807 85.5911 133.025 85.625 133.211 85.625C133.465 85.625 133.668 85.5827 133.82 85.498C133.973 85.4134 134.098 85.2949 134.195 85.1426C134.267 85.0283 134.383 84.7448 134.544 84.292C134.565 84.2285 134.599 84.1354 134.646 84.0127L132.087 77.2588H133.319L134.722 81.1626C134.904 81.6577 135.067 82.1782 135.21 82.7241C135.342 82.1994 135.498 81.6873 135.68 81.188L137.121 77.2588H138.264L135.699 84.1143C135.424 84.8548 135.21 85.3647 135.058 85.644C134.855 86.0207 134.622 86.2957 134.36 86.4692C134.098 86.647 133.784 86.7358 133.42 86.7358C133.2 86.7358 132.955 86.6893 132.684 86.5962Z" fill="#3A3A3A"/>
</svg>
