<svg width="26" height="24" viewBox="0 0 26 24" fill="none" xmlns="http://www.w3.org/2000/svg">
<g clip-path="url(#clip0_239_89)">
<path d="M22 4.66666L20.7987 19.3491C20.6936 20.635 20.6409 21.2781 20.3001 21.7656C19.9998 22.1948 19.5472 22.5399 19.0017 22.7554C18.382 23 17.5911 23 16.0092 23H9.99064C8.40891 23 7.61802 23 6.99833 22.7554C6.45275 22.5399 6.00009 22.1948 5.69998 21.7656C5.35911 21.2781 5.3065 20.635 5.20128 19.3491L4 4.66666M1 4.66666H25M19 4.66666L18.594 3.67431C18.2007 2.71263 18.0039 2.2318 17.6391 1.8763C17.3169 1.56239 16.9031 1.3194 16.4357 1.16962C15.9064 1 15.2844 1 14.0404 1H11.9596C10.7156 1 10.0936 1 9.56428 1.16962C9.09688 1.3194 8.68312 1.56239 8.36093 1.8763C7.99607 2.2318 7.79938 2.71263 7.40596 3.67431L7 4.66666M16 9.55556V18.1112M10 9.55556V18.1112" stroke="#3A3A3A" stroke-width="1.92" stroke-linecap="round" stroke-linejoin="round"/>
</g>
<defs>
<clipPath id="clip0_239_89">
<rect width="26" height="24" fill="white"/>
</clipPath>
</defs>
</svg>
