<svg width="20" height="20" viewBox="0 0 20 20" fill="none" xmlns="http://www.w3.org/2000/svg">
<g clip-path="url(#clip0_239_93)">
<path fill-rule="evenodd" clip-rule="evenodd" d="M16.9844 0.154617C17.5311 0.416983 18.1765 0.79689 18.6896 1.31008C19.2038 1.82432 19.5836 2.46869 19.8439 3.01546C20.1723 3.70181 19.9593 4.49311 19.4231 5.03043L11.8532 12.6002C11.5279 12.9256 11.1313 13.168 10.6937 13.3086L6.26344 14.7285C6.12565 14.7727 5.97834 14.7781 5.8377 14.744C5.69706 14.7099 5.56854 14.6377 5.46627 14.5353C5.364 14.4329 5.29194 14.3043 5.258 14.1636C5.22407 14.0229 5.22958 13.8756 5.27393 13.7378L6.69367 9.30805C6.83381 8.87073 7.07627 8.47316 7.40091 8.14839L14.9708 0.577552C15.508 0.0402254 16.2992 -0.171766 16.9855 0.155667L16.9844 0.154617ZM17.2058 2.79507C16.9466 2.55018 16.6541 2.34314 16.337 2.18008L8.99799 9.52004C8.92341 9.59451 8.86045 9.67977 8.81121 9.77296L7.24037 12.7608L10.2268 11.1908C10.3212 11.1415 10.4062 11.0785 10.4807 11.004L17.8197 3.66403C17.6566 3.34688 17.4507 3.05434 17.2058 2.79507ZM2.09761 3.73329C2.09738 3.59924 2.14846 3.47019 2.24037 3.37261C2.33227 3.27503 2.45803 3.21634 2.59184 3.20856L8.39463 3.21381C8.67293 3.21381 8.93983 3.10324 9.13662 2.90643C9.3334 2.70961 9.44396 2.44268 9.44396 2.16434C9.44396 1.88601 9.3334 1.61907 9.13662 1.42226C8.93983 1.22545 8.67293 1.11488 8.39463 1.11488L2.62332 1.10963C1.92757 1.10963 1.26032 1.38605 0.768353 1.87808C0.276385 2.37012 0 3.03745 0 3.73329V16.9324C0 17.73 0.0860449 18.176 0.334736 18.6399C0.569785 19.0796 0.920261 19.4312 1.35993 19.6663C1.82373 19.9139 2.26865 20 3.06719 20H15.8207C16.6182 20 17.0642 19.9139 17.528 19.6663C17.9687 19.4312 18.3192 19.0796 18.5542 18.6399C18.8019 18.176 18.8879 17.7311 18.8879 16.9324V11.6043C18.8879 11.3259 18.7774 11.059 18.5806 10.8622C18.3838 10.6654 18.1169 10.5548 17.8386 10.5548C17.5603 10.5548 17.2934 10.6654 17.0966 10.8622C16.8998 11.059 16.7893 11.3259 16.7893 11.6043V16.9324C16.7893 17.4141 16.7672 17.5317 16.7032 17.6502C16.6668 17.721 16.6092 17.7786 16.5385 17.815C16.4199 17.878 16.3024 17.9011 15.8207 17.9011H3.06719C2.58555 17.9011 2.46907 17.878 2.34945 17.815C2.27867 17.7786 2.22106 17.721 2.1847 17.6502C2.12174 17.5317 2.09866 17.4141 2.09866 16.9324L2.09761 3.73329Z" fill="#3A3A3A" stroke="#3A3A3A" stroke-width="0.00064"/>
</g>
<defs>
<clipPath id="clip0_239_93">
<rect width="20" height="20" fill="white"/>
</clipPath>
</defs>
</svg>
