<svg width="14" height="14" viewBox="0 0 14 14" fill="none" xmlns="http://www.w3.org/2000/svg">
<g clip-path="url(#clip0_239_99)">
<path d="M12.9497 6.21317C12.8325 6.0061 12.5695 5.93337 12.3624 6.05069C12.1554 6.16796 12.0826 6.43093 12.1999 6.638L12.9497 6.21317ZM10.4509 4.71921C10.6192 4.88757 10.892 4.88771 11.0603 4.71952C11.2286 4.55132 11.2288 4.27848 11.0606 4.11012L10.4509 4.71921ZM5.43109 10.9639L3.06585 8.59629L2.45614 9.20537L4.82138 11.573L5.43109 10.9639ZM10.0471 8.31711L8.94566 8.73093L9.2488 9.53774L10.3503 9.12392L10.0471 8.31711ZM5.29747 5.06953L5.69647 3.98052L4.88726 3.68403L4.48826 4.77303L5.29747 5.06953ZM3.5784 6.6534C3.98717 6.54067 4.2982 6.4615 4.55255 6.27839L4.04901 5.57896C3.94964 5.6505 3.82064 5.69262 3.34935 5.82256L3.5784 6.6534ZM4.48826 4.77303C4.31994 5.23243 4.26729 5.35781 4.18777 5.4511L4.84372 6.01007C5.04696 5.7716 5.15147 5.46803 5.29747 5.06953L4.48826 4.77303ZM4.55255 6.27839C4.66004 6.20099 4.7578 6.11091 4.84372 6.01007L4.18777 5.4511C4.14681 5.49916 4.10023 5.5421 4.04901 5.57896L4.55255 6.27839ZM8.94566 8.73093C8.5497 8.87974 8.24788 8.98639 8.01141 9.1912L8.57565 9.8427C8.66805 9.76273 8.79232 9.70929 9.2488 9.53774L8.94566 8.73093ZM8.20889 10.6773C8.3383 10.2069 8.3803 10.078 8.45162 9.9785L7.75143 9.47614C7.56913 9.7302 7.49024 10.0406 7.37792 10.4487L8.20889 10.6773ZM8.01141 9.1912C7.91392 9.27562 7.82664 9.37123 7.75143 9.47614L8.45162 9.9785C8.48753 9.92851 8.52912 9.88297 8.57565 9.8427L8.01141 9.1912ZM3.06585 8.59629C2.69462 8.22468 2.44286 7.9717 2.27951 7.76647C2.11559 7.5605 2.09865 7.47133 2.09841 7.43134L1.2366 7.4368C1.23871 7.7713 1.40482 8.0514 1.6052 8.30319C1.80614 8.5556 2.09996 8.84878 2.45614 9.20537L3.06585 8.59629ZM3.34935 5.82256C2.86373 5.95647 2.46353 6.06609 2.1642 6.18628C1.86569 6.30608 1.58287 6.46764 1.41589 6.75757L2.16272 7.18767C2.1826 7.15314 2.24117 7.08402 2.48528 6.98606C2.72856 6.88839 3.07222 6.79295 3.5784 6.6534L3.34935 5.82256ZM2.09841 7.43134C2.09786 7.34579 2.12007 7.26173 2.16272 7.18767L1.41589 6.75757C1.29696 6.96406 1.23509 7.19848 1.2366 7.4368L2.09841 7.43134ZM4.82138 11.573C5.17982 11.9318 5.47456 12.2278 5.72841 12.43C5.98154 12.6316 6.26358 12.7986 6.60038 12.7992L6.60165 11.9373C6.56177 11.9373 6.47243 11.9208 6.26537 11.7558C6.05898 11.5915 5.80469 11.3379 5.43109 10.9639L4.82138 11.573ZM7.37792 10.4487C7.23762 10.9586 7.14167 11.3049 7.04336 11.5499C6.94465 11.7958 6.87502 11.8543 6.8402 11.8743L7.26738 12.6228C7.55982 12.4558 7.72254 12.1713 7.84313 11.8709C7.96408 11.5696 8.07427 11.1665 8.20889 10.6773L7.37792 10.4487ZM6.60038 12.7992C6.83428 12.7995 7.06421 12.7387 7.26738 12.6228L6.8402 11.8743C6.76752 11.9157 6.6853 11.9374 6.60165 11.9373L6.60038 12.7992ZM10.3503 9.12392C11.1325 8.83 11.7655 8.5934 12.2154 8.34363C12.672 8.09024 13.0378 7.77095 13.1468 7.26638L12.3045 7.08425C12.2734 7.22812 12.1712 7.3825 11.7972 7.59009C11.4164 7.80141 10.8561 8.01319 10.0471 8.31711L10.3503 9.12392ZM9.59715 2.64512C9.0019 2.04935 8.52162 1.56692 8.10593 1.2583C7.68438 0.945327 7.24003 0.742778 6.73339 0.854558L6.91908 1.69615C7.06255 1.66449 7.24594 1.69319 7.59223 1.95027C7.94437 2.21172 8.37199 2.63816 8.98741 3.25422L9.59715 2.64512ZM5.69647 3.98052C5.99619 3.16257 6.20509 2.59566 6.41486 2.21019C6.62112 1.83112 6.77556 1.72782 6.91908 1.69615L6.73339 0.854558C6.22687 0.966319 5.90885 1.33698 5.65783 1.79826C5.4103 2.25317 5.17708 2.89299 4.88726 3.68403L5.69647 3.98052ZM12.1999 6.638C12.3156 6.84219 12.3288 6.97182 12.3045 7.08425L13.1468 7.26638C13.2285 6.8889 13.1361 6.54205 12.9497 6.21317L12.1999 6.638ZM8.98741 3.25422L10.4509 4.71921L11.0606 4.11012L9.59715 2.64512L8.98741 3.25422Z" fill="#3A3A3A"/>
<path d="M9.29228 2.94967L9.59715 2.64512M9.59715 2.64512C9.0019 2.04935 8.52162 1.56692 8.10593 1.2583C7.68438 0.945327 7.24003 0.742778 6.73339 0.854558M9.59715 2.64512L8.98741 3.25422M9.59715 2.64512L11.0606 4.11012M6.73339 0.854558L6.91908 1.69615M6.73339 0.854558C6.22687 0.966319 5.90885 1.33698 5.65783 1.79826C5.4103 2.25317 5.17708 2.89299 4.88726 3.68403M8.98741 3.25422C8.37199 2.63816 7.94437 2.21172 7.59223 1.95027C7.24594 1.69319 7.06255 1.66449 6.91908 1.69615M8.98741 3.25422L10.4509 4.71921M11.0606 4.11012C11.2288 4.27848 11.2286 4.55132 11.0603 4.71952C10.892 4.88771 10.6192 4.88757 10.4509 4.71921M11.0606 4.11012L10.4509 4.71921M5.12624 11.2685L4.82138 11.573M4.82138 11.573L2.45614 9.20537M4.82138 11.573L5.43109 10.9639M4.82138 11.573C5.17982 11.9318 5.47456 12.2278 5.72841 12.43C5.98154 12.6316 6.26358 12.7986 6.60038 12.7992M2.45614 9.20537L3.06585 8.59629M2.45614 9.20537C2.09996 8.84878 1.80614 8.5556 1.6052 8.30319C1.40482 8.0514 1.23871 7.7713 1.2366 7.4368M5.43109 10.9639L3.06585 8.59629M5.43109 10.9639C5.80469 11.3379 6.05898 11.5915 6.26537 11.7558C6.47243 11.9208 6.56177 11.9373 6.60165 11.9373M6.60038 12.7992L6.60165 11.9373M6.60038 12.7992C6.83428 12.7995 7.06421 12.7387 7.26738 12.6228M2.76099 8.90083L3.06585 8.59629M3.06585 8.59629C2.69462 8.22468 2.44286 7.9717 2.27951 7.76647C2.11559 7.5605 2.09865 7.47133 2.09841 7.43134M2.09841 7.43134L1.2366 7.4368M2.09841 7.43134C2.09786 7.34579 2.12007 7.26173 2.16272 7.18767M10.1987 8.72047L10.0471 8.31711M10.0471 8.31711L8.94566 8.73093M10.0471 8.31711L10.3503 9.12392M10.0471 8.31711C10.8561 8.01319 11.4164 7.80141 11.7972 7.59009C12.1712 7.3825 12.2734 7.22812 12.3045 7.08425M8.94566 8.73093L9.2488 9.53774M8.94566 8.73093C8.5497 8.87974 8.24788 8.98639 8.01141 9.1912M10.3503 9.12392L9.2488 9.53774M10.3503 9.12392C11.1325 8.83 11.7655 8.5934 12.2154 8.34363C12.672 8.09024 13.0378 7.77095 13.1468 7.26638M12.3045 7.08425L13.1468 7.26638M12.3045 7.08425C12.3288 6.97182 12.3156 6.84219 12.1999 6.638M9.09719 9.13438L9.2488 9.53774M9.2488 9.53774C8.79232 9.70929 8.66805 9.76273 8.57565 9.8427M8.57565 9.8427L8.2935 9.51699M8.57565 9.8427L8.01141 9.1912M8.57565 9.8427C8.52912 9.88297 8.48753 9.92851 8.45162 9.9785M4.89286 4.92129L4.48826 4.77303M4.48826 4.77303L4.88726 3.68403M4.48826 4.77303L5.29747 5.06953M4.48826 4.77303C4.31994 5.23243 4.26729 5.35781 4.18777 5.4511M4.88726 3.68403L5.69647 3.98052M5.29747 5.06953L5.69647 3.98052M5.29747 5.06953C5.15147 5.46803 5.04696 5.7716 4.84372 6.01007M4.18777 5.4511C4.14681 5.49916 4.10023 5.5421 4.04901 5.57896M4.18777 5.4511L4.84372 6.01007M5.29186 3.83228L5.69647 3.98052M5.69647 3.98052C5.99619 3.16257 6.20509 2.59566 6.41486 2.21019C6.62112 1.83112 6.77556 1.72782 6.91908 1.69615M6.91908 1.69615L6.82624 1.27535M3.46388 6.23799L3.5784 6.6534M3.5784 6.6534C3.98717 6.54067 4.2982 6.4615 4.55255 6.27839M3.5784 6.6534L3.34935 5.82256M3.5784 6.6534C3.07222 6.79295 2.72856 6.88839 2.48528 6.98606C2.24117 7.08402 2.1826 7.15314 2.16272 7.18767M4.55255 6.27839L4.04901 5.57896M4.55255 6.27839C4.66004 6.20099 4.7578 6.11091 4.84372 6.01007M3.34935 5.82256C3.82064 5.69262 3.94964 5.6505 4.04901 5.57896M3.34935 5.82256C2.86373 5.95647 2.46353 6.06609 2.1642 6.18628C1.86569 6.30608 1.58287 6.46764 1.41589 6.75757M2.16272 7.18767L1.41589 6.75757M4.30077 5.92866L4.04901 5.57896M4.51575 5.7306L4.84372 6.01007M8.01141 9.1912C7.91392 9.27562 7.82664 9.37123 7.75143 9.47614M8.45162 9.9785L7.75143 9.47614M8.45162 9.9785C8.3803 10.078 8.3383 10.2069 8.20889 10.6773M7.79343 10.563L7.37792 10.4487M7.37792 10.4487C7.49024 10.0406 7.56913 9.7302 7.75143 9.47614M7.37792 10.4487L8.20889 10.6773M7.37792 10.4487C7.23762 10.9586 7.14167 11.3049 7.04336 11.5499C6.94465 11.7958 6.87502 11.8543 6.8402 11.8743M7.75143 9.47614L8.10156 9.72732M8.20889 10.6773C8.07427 11.1665 7.96408 11.5696 7.84313 11.8709C7.72254 12.1713 7.55982 12.4558 7.26738 12.6228M6.8402 11.8743C6.76752 11.9157 6.6853 11.9374 6.60165 11.9373M6.8402 11.8743L7.05376 12.2485M6.8402 11.8743L7.26738 12.6228M1.6675 7.43404L1.2366 7.4368M1.2366 7.4368C1.23509 7.19848 1.29696 6.96406 1.41589 6.75757M1.41589 6.75757L1.7893 6.97262M6.60101 12.3682L6.60165 11.9373M12.7257 7.17532L13.1468 7.26638M13.1468 7.26638C13.2285 6.8889 13.1361 6.54205 12.9497 6.21317M12.9497 6.21317C12.8325 6.0061 12.5695 5.93337 12.3624 6.05069C12.1554 6.16796 12.0826 6.43093 12.1999 6.638M12.9497 6.21317L12.1999 6.638" stroke="#3A3A3A" stroke-width="1.05412"/>
<path d="M0.949544 12.441C0.781348 12.6094 0.781485 12.8822 0.949848 13.0505C1.11822 13.2187 1.39105 13.2185 1.55925 13.0501L0.949544 12.441ZM4.23276 10.3739C4.40096 10.2055 4.40082 9.93269 4.23244 9.76452C4.06407 9.59627 3.79124 9.59644 3.62305 9.76477L4.23276 10.3739ZM1.55925 13.0501L4.23276 10.3739L3.62305 9.76477L0.949544 12.441L1.55925 13.0501Z" fill="#3A3A3A"/>
<path d="M0.949544 12.441C0.781348 12.6094 0.781485 12.8822 0.949848 13.0505C1.11822 13.2187 1.39105 13.2185 1.55925 13.0501M0.949544 12.441L1.55925 13.0501M0.949544 12.441L3.62305 9.76477M1.55925 13.0501L4.23276 10.3739M3.62305 9.76477C3.79124 9.59644 4.06407 9.59627 4.23244 9.76452C4.40082 9.93269 4.40096 10.2055 4.23276 10.3739M3.62305 9.76477L4.23276 10.3739" stroke="#3A3A3A" stroke-width="1.05412"/>
</g>
<defs>
<clipPath id="clip0_239_99">
<rect width="14" height="14" fill="white"/>
</clipPath>
</defs>
</svg>
