<svg width="20" height="21" viewBox="0 0 20 21" fill="none" xmlns="http://www.w3.org/2000/svg">
<g id="All" clip-path="url(#clip0_182_70)">
<path id="Vector" d="M4.6 1.25949H19.4C19.7314 1.25949 20 1.59954 20 2.01899C20 2.43844 19.7314 2.77848 19.4 2.77848H4.6C4.26863 2.77848 4 2.43844 4 2.01899C4 1.59954 4.26863 1.25949 4.6 1.25949ZM4.6 6.82911H19.4C19.7314 6.82911 20 7.16916 20 7.58861C20 8.00806 19.7314 8.3481 19.4 8.3481H4.6C4.26863 8.3481 4 8.00806 4 7.58861C4 7.16916 4.26863 6.82911 4.6 6.82911ZM4.6 12.6519H19.4C19.7314 12.6519 20 12.9919 20 13.4114C20 13.8308 19.7314 14.1709 19.4 14.1709H4.6C4.26863 14.1709 4 13.8308 4 13.4114C4 12.9919 4.26863 12.6519 4.6 12.6519ZM4.6 18.2215H19.4C19.7314 18.2215 20 18.5616 20 18.981C20 19.4005 19.7314 19.7405 19.4 19.7405H4.6C4.26863 19.7405 4 19.4005 4 18.981C4 18.5616 4.26863 18.2215 4.6 18.2215ZM1.2 3.53798C0.537266 3.53798 0 2.85789 0 2.01899C0 1.18008 0.537266 0.5 1.2 0.5C1.86273 0.5 2.4 1.18008 2.4 2.01899C2.4 2.85789 1.86273 3.53798 1.2 3.53798ZM1.2 9.1076C0.537266 9.1076 0 8.42751 0 7.58861C0 6.7497 0.537266 6.06962 1.2 6.06962C1.86273 6.06962 2.4 6.7497 2.4 7.58861C2.4 8.42751 1.86273 9.1076 1.2 9.1076ZM1.2 14.9304C0.537266 14.9304 0 14.2503 0 13.4114C0 12.5725 0.537266 11.8924 1.2 11.8924C1.86273 11.8924 2.4 12.5725 2.4 13.4114C2.4 14.2503 1.86273 14.9304 1.2 14.9304ZM1.2 20.5C0.537266 20.5 0 19.8199 0 18.981C0 18.1421 0.537266 17.462 1.2 17.462C1.86273 17.462 2.4 18.1421 2.4 18.981C2.4 19.8199 1.86273 20.5 1.2 20.5Z" fill="#3A3A3A" stroke="#3A3A3A" stroke-width="0.00064"/>
</g>
<defs>
<clipPath id="clip0_182_70">
<rect width="20" height="20" fill="white" transform="translate(0 0.5)"/>
</clipPath>
</defs>
</svg>
