<svg width="20" height="21" viewBox="0 0 20 21" fill="none" xmlns="http://www.w3.org/2000/svg">
<g id="Finance" clip-path="url(#clip0_182_2)">
<path id="Vector" d="M13.1913 19.1158H6.84157C3.68344 19.1158 1.12207 16.4981 1.12207 13.2705V12.8365C1.12207 9.6089 3.68344 6.99121 6.84157 6.99121H13.1913C16.3495 6.99121 18.9108 9.6089 18.9108 12.8365V13.2705C18.9108 16.4981 16.3495 19.1158 13.1913 19.1158Z" fill="#3A3A3A" stroke="#3A3A3A" stroke-width="0.00064"/>
<path id="Vector_2" d="M6.89067 7.39783L5.76196 6.5778C5.58092 6.44532 5.36412 6.37451 5.14062 6.37451H2.37586C2.1233 6.37451 1.93555 6.6212 2.00708 6.87246C2.16577 7.43666 2.69547 7.87523 4.05215 9.30513M1.85956 14.6273H0.308437C0.138573 14.6273 0 14.4857 0 14.3121V11.9822C0 11.8086 0.138573 11.667 0.308437 11.667H1.85956C2.02943 11.667 2.168 11.8086 2.168 11.9822V14.3121C2.168 14.488 2.02943 14.6273 1.85956 14.6273Z" fill="#3A3A3A"/>
<path id="Vector_3" d="M6.89067 7.39783L5.76196 6.5778C5.58092 6.44532 5.36412 6.37451 5.14062 6.37451H2.37586C2.1233 6.37451 1.93555 6.6212 2.00708 6.87246C2.16577 7.43666 2.69547 7.87523 4.05215 9.30513M1.85956 14.6273H0.308437C0.138573 14.6273 0 14.4857 0 14.3121V11.9822C0 11.8086 0.138573 11.667 0.308437 11.667H1.85956C2.02943 11.667 2.168 11.8086 2.168 11.9822V14.3121C2.168 14.488 2.02943 14.6273 1.85956 14.6273Z" stroke="#3A3A3A" stroke-width="0.00064"/>
<path id="Vector_4" d="M1.85956 14.488H0.308437C0.138573 14.488 0 14.3464 0 14.1728V11.8429C0 11.6693 0.138573 11.5277 0.308437 11.5277H1.85956C2.02943 11.5277 2.168 11.6693 2.168 11.8429V14.1728C2.168 14.3464 2.02943 14.488 1.85956 14.488ZM8.56472 18.8759V20.1848C8.56472 20.3584 8.42615 20.5 8.25628 20.5H6.01005C5.84019 20.5 5.70162 20.3584 5.70162 20.1848V18.8759C5.70162 18.7023 5.84019 18.5607 6.01005 18.5607H8.25628C8.42615 18.5607 8.56472 18.7023 8.56472 18.8759ZM14.2865 18.8759V20.1848C14.2865 20.3584 14.1479 20.5 13.978 20.5H11.734C11.5642 20.5 11.4256 20.3584 11.4256 20.1848V18.8759C11.4256 18.7023 11.5642 18.5607 11.734 18.5607H13.9802C14.1501 18.5607 14.2865 18.7023 14.2865 18.8759ZM17.487 12.5419C17.4155 12.5875 17.3194 12.5647 17.277 12.4893L16.9037 11.836C16.9193 11.8269 17.496 11.4797 18.0592 10.9703C18.6739 10.4153 19.0382 9.88077 19.103 9.44449C19.1142 9.36911 19.1767 9.31201 19.2527 9.31201H19.8495C19.9367 9.31201 20.0082 9.38967 19.9992 9.47875C19.9367 10.1777 19.4807 10.9132 18.6403 11.667C18.171 12.085 17.7083 12.4002 17.487 12.5419Z" fill="#3A3A3A" stroke="#3A3A3A" stroke-width="0.00064"/>
<path id="Vector_5" d="M3.77295 10.7693C3.77295 10.9044 3.82546 11.034 3.91893 11.1295C4.0124 11.225 4.13917 11.2787 4.27136 11.2787C4.40355 11.2787 4.53032 11.225 4.6238 11.1295C4.71727 11.034 4.76978 10.9044 4.76978 10.7693C4.76978 10.6342 4.71727 10.5047 4.6238 10.4091C4.53032 10.3136 4.40355 10.2599 4.27136 10.2599C4.13917 10.2599 4.0124 10.3136 3.91893 10.4091C3.82546 10.5047 3.77295 10.6342 3.77295 10.7693Z" fill="#3A3A3A" stroke="#3A3A3A" stroke-width="0.00064"/>
<path id="Vector_6" d="M11.5419 8.61991H8.11113C8.04632 8.61991 7.99268 8.56509 7.99268 8.49885V7.52121C7.99268 7.45497 8.04632 7.40015 8.11113 7.40015H11.5419C11.6068 7.40015 11.6604 7.45497 11.6604 7.52121V8.49885C11.6626 8.56509 11.609 8.61991 11.5419 8.61991Z" fill="#3A3A3A" stroke="#3A3A3A" stroke-width="0.00064"/>
<path id="Vector_7" d="M7.62012 2.9508C7.62012 3.27264 7.68214 3.59133 7.80265 3.88868C7.92316 4.18602 8.0998 4.45619 8.32248 4.68377C8.54516 4.91135 8.80952 5.09187 9.10047 5.21504C9.39141 5.3382 9.70324 5.4016 10.0181 5.4016C10.3331 5.4016 10.6449 5.3382 10.9358 5.21504C11.2268 5.09187 11.4911 4.91135 11.7138 4.68377C11.9365 4.45619 12.1131 4.18602 12.2337 3.88868C12.3542 3.59133 12.4162 3.27264 12.4162 2.9508C12.4162 2.62896 12.3542 2.31026 12.2337 2.01292C12.1131 1.71558 11.9365 1.4454 11.7138 1.21782C11.4911 0.990246 11.2268 0.809721 10.9358 0.686556C10.6449 0.563392 10.3331 0.5 10.0181 0.5C9.70324 0.5 9.39141 0.563392 9.10047 0.686556C8.80952 0.809721 8.54516 0.990246 8.32248 1.21782C8.0998 1.4454 7.92316 1.71558 7.80265 2.01292C7.68214 2.31026 7.62012 2.62896 7.62012 2.9508Z" fill="#3A3A3A" stroke="#3A3A3A" stroke-width="0.00064"/>
</g>
<defs>
<clipPath id="clip0_182_2">
<rect width="20" height="20" fill="white" transform="translate(0 0.5)"/>
</clipPath>
</defs>
</svg>
