<svg width="14" height="14" viewBox="0 0 17 17" fill="none" xmlns="http://www.w3.org/2000/svg"><path d="M13 7H9.25" stroke="#F5F7F8" stroke-width="1.92" stroke-linecap="round" /><path d="M7 1.75H11.875C12.2233 1.75 12.3974 1.75 12.5437 1.76925C13.5533 1.90218 14.3478 2.69666 14.4807 3.70631C14.5 3.85253 14.5 4.02669 14.5 4.375" stroke="#F5F7F8" stroke-width="1.92" /><path d="M16 8.34843C16 6.37416 16 5.38701 15.4229 4.74537C15.3698 4.68636 15.3137 4.63018 15.2547 4.5771C14.613 4 13.6259 4 11.6516 4H11.3713C10.506 4 10.0734 4 9.6703 3.88508C9.44883 3.82195 9.2353 3.73353 9.03408 3.62157C8.66778 3.41775 8.36185 3.11183 7.75 2.5L7.33728 2.08731C7.13223 1.88225 7.0297 1.77971 6.92195 1.69038C6.45739 1.30528 5.88749 1.06922 5.28668 1.01303C5.14732 1 5.00231 1 4.71231 1C4.05041 1 3.71946 1 3.44379 1.05201C2.23023 1.28098 1.28098 2.23023 1.05201 3.44379C1 3.71946 1 4.05041 1 4.71231M15.9935 11.5C15.9666 13.3597 15.8286 14.414 15.1213 15.1213C14.2427 16 12.8284 16 10 16H7C4.17157 16 2.75736 16 1.87868 15.1213C1 14.2427 1 12.8284 1 10V7.75" stroke="#F5F7F8" stroke-width="1.92" stroke-linecap="round" /></svg>