<svg width="22" height="23" viewBox="0 0 22 23" fill="none" xmlns="http://www.w3.org/2000/svg">
<g id="Health" clip-path="url(#clip0_182_18)">
<path id="Vector" d="M7.99649 21.5H13.9935C18.991 21.5 20.99 19.5 20.99 14.5V8.5C20.99 3.5 18.991 1.5 13.9935 1.5H7.99649C2.999 1.5 1 3.5 1 8.5V14.5C1 19.5 2.999 21.5 7.99649 21.5Z" stroke="#3A3A3A" stroke-width="1.92" stroke-linecap="round" stroke-linejoin="round"/>
<path id="Vector_2" d="M1 12.2001L6.99699 12.1801C7.74662 12.1801 8.5862 12.7501 8.86606 13.4501L10.0055 16.3301C10.2654 16.9801 10.6752 16.9801 10.935 16.3301L13.2239 10.5201C13.4438 9.96011 13.8536 9.94011 14.1334 10.4701L15.1729 12.4401C15.4828 13.0301 16.2824 13.5101 16.942 13.5101H21" stroke="#3A3A3A" stroke-width="1.92" stroke-linecap="round" stroke-linejoin="round"/>
</g>
<defs>
<clipPath id="clip0_182_18">
<rect width="22" height="22" fill="white" transform="translate(0 0.5)"/>
</clipPath>
</defs>
</svg>
