<svg width="22" height="23" viewBox="0 0 22 23" fill="none" xmlns="http://www.w3.org/2000/svg">
<g id="Ideas" clip-path="url(#clip0_182_21)">
<path id="Vector" d="M17.8569 8.92881L21 8.46521" stroke="#3A3A3A" stroke-width="1.92"/>
<path id="Vector_2" d="M16.8745 6.21078L18.8399 5.1228" stroke="#3A3A3A" stroke-width="1.92"/>
<path id="Vector_3" d="M14.8691 4.19937L16.19 1.5" stroke="#3A3A3A" stroke-width="1.92"/>
<path id="Vector_4" d="M11.1131 3.81051L11.0972 1.66821" stroke="#3A3A3A" stroke-width="1.92"/>
<path id="Vector_5" d="M7.469 4.33396L6.40674 1.5" stroke="#3A3A3A" stroke-width="1.92"/>
<path id="Vector_6" d="M4.96262 6.18091L2.96143 5.15649" stroke="#3A3A3A" stroke-width="1.92"/>
<path id="Vector_7" d="M4.08335 8.77554L1 8.28577" stroke="#3A3A3A" stroke-width="1.92"/>
<path id="Vector_8" d="M8.23695 16.8139C8.23695 14.8847 6.9678 13.2658 6.2835 12.0694C5.90331 11.4051 5.70378 10.6627 5.70264 9.90846C5.70264 7.36986 8.17329 5.30981 10.8747 5.30981" stroke="#3A3A3A" stroke-width="1.92"/>
<path id="Vector_9" d="M13.5127 16.8139C13.5127 14.8847 14.7819 13.2658 15.4662 12.0694C15.8463 11.4051 16.0459 10.6627 16.047 9.90846C16.047 7.36986 13.5764 5.30981 10.875 5.30981" stroke="#3A3A3A" stroke-width="1.92"/>
<path id="Vector_10" d="M13.8944 16.7092H8.04999C7.58417 16.7092 7.20654 17.0641 7.20654 17.5018V17.5055C7.20654 17.9433 7.58417 18.2982 8.04999 18.2982H13.8944C14.3602 18.2982 14.7379 17.9433 14.7379 17.5055V17.5018C14.7379 17.0641 14.3602 16.7092 13.8944 16.7092Z" stroke="#3A3A3A" stroke-width="1.92"/>
<path id="Vector_11" d="M13.4328 18.2944H8.51141C8.04559 18.2944 7.66797 18.6493 7.66797 19.087V19.0908C7.66797 19.5285 8.04559 19.8834 8.51141 19.8834H13.4328C13.8987 19.8834 14.2763 19.5285 14.2763 19.0908V19.087C14.2763 18.6493 13.8987 18.2944 13.4328 18.2944Z" stroke="#3A3A3A" stroke-width="1.92"/>
<path id="Vector_12" d="M12.2556 19.8834V20.1974C12.2695 20.3635 12.2467 20.5305 12.1887 20.6879C12.1306 20.8453 12.0385 20.9897 11.9182 21.112C11.7979 21.2344 11.6519 21.332 11.4895 21.3987C11.3271 21.4655 11.1517 21.5 10.9745 21.5C10.7972 21.5 10.6218 21.4655 10.4594 21.3987C10.297 21.332 10.1511 21.2344 10.0307 21.112C9.91047 20.9897 9.81838 20.8453 9.76032 20.6879C9.70227 20.5305 9.67949 20.3635 9.69343 20.1974V19.8834" stroke="#3A3A3A" stroke-width="1.92"/>
<path id="Vector_13" d="M7.58057 9.62797C7.60043 9.25991 7.69731 8.89913 7.86566 8.56627C8.03402 8.23342 8.27054 7.93501 8.56171 7.68813C8.85289 7.44124 9.19299 7.25072 9.56258 7.12745C9.93217 7.00418 10.324 6.95058 10.7156 6.96973" stroke="#3A3A3A" stroke-width="1.92"/>
</g>
<defs>
<clipPath id="clip0_182_21">
<rect width="22" height="22" fill="white" transform="translate(0 0.5)"/>
</clipPath>
</defs>
</svg>
