<svg width="20" height="21" viewBox="0 0 20 21" fill="none" xmlns="http://www.w3.org/2000/svg">
<g id="Personal" clip-path="url(#clip0_182_39)">
<path id="Vector" d="M13.5132 9.34159C13.3832 9.24547 13.2181 9.30533 13.1446 9.47534C13.0711 9.64536 13.1168 9.8617 13.2471 9.95782C13.4468 10.1065 13.5688 10.2725 13.6493 10.4439C13.3157 10.5971 13.02 10.6601 12.7588 10.6601C12.3764 10.6597 12.0636 10.5277 11.7998 10.3255C11.5368 10.1229 11.3241 9.84582 11.1628 9.55834C10.8969 9.08449 10.551 8.66244 10.1433 8.35453C9.73625 8.04754 9.26527 7.85571 8.7598 7.85571C8.31656 7.85531 7.84945 8.00449 7.38664 8.33681C7.19742 8.4724 7.03339 8.63108 6.89054 8.80427C6.32749 9.08766 5.84234 9.18965 5.4319 9.18965C4.84718 9.18965 4.41038 8.98424 4.11835 8.78246C3.97253 8.6818 3.86346 8.58159 3.79288 8.50907C3.75749 8.47235 3.73171 8.44329 3.71569 8.42429L3.69905 8.40341L3.69643 8.40024C3.59271 8.26102 3.42198 8.25744 3.31464 8.39253C3.20714 8.52807 3.20401 8.75207 3.30772 8.89262C3.3228 8.91259 3.50885 9.16151 3.86503 9.40819C4.02093 9.5161 4.21202 9.62217 4.43276 9.70879C4.37413 9.81671 4.29405 9.97447 4.20682 10.1753C4.03913 10.5621 3.84647 11.1048 3.74831 11.7451C3.71901 11.9364 3.81405 12.1228 3.96057 12.1613C4.1071 12.1994 4.24979 12.0751 4.27893 11.8834C4.36128 11.3443 4.52948 10.865 4.67757 10.5245C4.75144 10.354 4.81995 10.2184 4.86921 10.1273C4.89382 10.0815 4.91358 10.0466 4.92679 10.0239C4.93335 10.013 4.93839 10.0044 4.94136 9.99939L4.94448 9.99438L4.94499 9.99346C4.96995 9.95358 4.98663 9.90869 4.99612 9.86155C5.13382 9.88371 5.27843 9.89735 5.4319 9.89689C5.71644 9.89735 6.02804 9.85338 6.36359 9.75363C6.19726 10.2225 6.12882 10.7117 6.12863 11.1601C6.12929 11.6117 6.19503 12.0216 6.31226 12.3481C6.3762 12.5249 6.53765 12.6002 6.67273 12.5168C6.80781 12.4333 6.86554 12.222 6.80156 12.0457C6.72632 11.8408 6.66906 11.5174 6.66995 11.1601C6.66976 10.7747 6.73339 10.3504 6.88601 9.96313C7.03945 9.5759 7.27773 9.22269 7.64691 8.95697C8.03652 8.67812 8.40847 8.56382 8.7598 8.56341C9.1598 8.56341 9.53664 8.71443 9.87301 8.96739C10.209 9.22086 10.5026 9.57769 10.7263 9.97666C10.923 10.3276 11.1863 10.674 11.5252 10.9352C11.8633 11.1964 12.2784 11.3682 12.7588 11.3677C13.0766 11.3677 13.4218 11.2924 13.7926 11.1274L13.7934 11.1527C13.7934 11.326 13.7728 11.4837 13.7522 11.5953C13.742 11.6511 13.7317 11.6951 13.7246 11.7236C13.721 11.7377 13.7182 11.7481 13.7165 11.754L13.7149 11.7594C13.6601 11.9403 13.7276 12.1462 13.8659 12.2187C14.0047 12.2913 14.1623 12.2028 14.2178 12.0215C14.2247 11.9961 14.3336 11.6429 14.3347 11.1527C14.3347 10.8715 14.297 10.5415 14.172 10.2156C14.0479 9.88979 13.8335 9.57693 13.5132 9.34159Z" fill="#3A3A3A" stroke="#3A3A3A" stroke-width="0.00064"/>
<path id="Vector_2" d="M14.1165 6.97888C13.3726 6.97888 12.7752 6.62067 12.362 6.15183C12.1558 5.91787 11.9973 5.65623 11.8931 5.40598C11.7884 5.15522 11.7404 4.91672 11.7411 4.73807C11.7411 4.54262 11.6199 4.3844 11.4704 4.3844C11.321 4.3844 11.1999 4.54262 11.1999 4.73807C11.2006 5.07085 11.2801 5.41186 11.4178 5.74377C11.5619 6.08932 11.7724 6.42481 12.04 6.72041C11.9861 6.81837 11.9117 6.94446 11.8167 7.07955C11.6105 7.37382 11.3133 7.69981 10.9585 7.86441C10.8177 7.93014 10.7444 8.13284 10.7947 8.31645C10.8449 8.50056 10.9998 8.59673 11.1405 8.5309C11.622 8.30465 11.9824 7.89209 12.227 7.54108C12.3359 7.38419 12.4206 7.24093 12.4833 7.12622C12.931 7.46401 13.484 7.68709 14.1166 7.68663C14.2658 7.68663 14.3873 7.52841 14.3873 7.33296C14.3871 7.13761 14.2658 6.97888 14.1165 6.97888Z" fill="#3A3A3A" stroke="#3A3A3A" stroke-width="0.00064"/>
<path id="Vector_3" d="M12.3123 13.8981C11.8061 13.8981 11.4038 13.7702 11.0805 13.5748C10.5967 13.281 10.2829 12.8294 10.0854 12.3791C9.98688 12.1547 9.91891 11.9312 9.87606 11.7348C9.83305 11.5394 9.81621 11.368 9.81656 11.2642C9.81656 11.0688 9.69555 10.9105 9.54606 10.9105C9.39641 10.9105 9.27539 11.0687 9.27539 11.2642C9.27539 11.3916 9.28699 11.5326 9.31078 11.6877C9.35203 11.9579 9.43059 12.2703 9.55789 12.5922C9.74883 13.0747 10.0519 13.5807 10.5048 13.9653C10.6182 14.0622 10.741 14.1502 10.8731 14.2291C10.8938 14.3452 10.9224 14.5519 10.9222 14.8013C10.9222 14.9827 10.9073 15.1849 10.8653 15.3921C10.8234 15.5993 10.755 15.8107 10.6465 16.016C10.5614 16.177 10.592 16.3973 10.715 16.5085C10.838 16.6195 11.0065 16.5797 11.0915 16.4191C11.2392 16.1398 11.3328 15.8496 11.3887 15.573C11.4447 15.296 11.4634 15.0326 11.4634 14.8013C11.4634 14.6857 11.4586 14.5787 11.4513 14.4808C11.7121 14.5601 11.9978 14.6064 12.3123 14.6059C12.4617 14.6059 12.5829 14.4472 12.5829 14.2518C12.5829 14.0568 12.4617 13.8981 12.3123 13.8981Z" fill="#3A3A3A" stroke="#3A3A3A" stroke-width="0.00064"/>
<path id="Vector_4" d="M15.9885 8.58314C15.8544 8.43217 15.7098 8.30837 15.5572 8.22038C15.4048 8.13243 15.2437 8.07983 15.0788 8.07983C14.9293 8.07983 14.8081 8.23805 14.8081 8.4335C14.8081 8.62941 14.9293 8.78763 15.0788 8.78763C15.1783 8.78717 15.3042 8.83252 15.4365 8.93272C15.6349 9.08144 15.8411 9.34849 15.991 9.68311C16.1419 10.0173 16.2374 10.415 16.2373 10.8257C16.2361 11.2778 16.1272 11.7494 15.8324 12.2182C15.7372 12.3692 15.7535 12.5918 15.8688 12.7165C15.984 12.8408 16.1546 12.8195 16.2498 12.6689C16.6212 12.083 16.7797 11.4333 16.7785 10.8257C16.7785 10.4566 16.7219 10.1035 16.6269 9.78153C16.484 9.299 16.2564 8.88599 15.9885 8.58314Z" fill="#3A3A3A" stroke="#3A3A3A" stroke-width="0.00064"/>
<path id="Vector_5" d="M6.56511 6.69681C6.75101 6.40887 7.01582 6.18262 7.31769 6.03074C7.61906 5.87839 7.95547 5.80219 8.27019 5.80265C8.57676 5.80173 8.86219 5.87563 9.07152 6.00306C9.20731 6.08467 9.36801 6.0076 9.43082 5.82987C9.4934 5.65255 9.4341 5.44265 9.29852 5.36053C8.99613 5.17871 8.64082 5.09526 8.27023 5.09485C7.8898 5.09485 7.49285 5.18463 7.12316 5.37002C6.75437 5.55592 6.41085 5.83983 6.15199 6.23926C6.05538 6.38844 6.0696 6.61193 6.18371 6.73803C6.29773 6.86458 6.46855 6.84553 6.56511 6.69681Z" fill="#3A3A3A" stroke="#3A3A3A" stroke-width="0.00064"/>
<path id="Vector_6" d="M18.8135 5.67444L18.8141 5.67556" stroke="#3A3A3A" stroke-width="0.00064"/>
<path id="Vector_7" d="M13.1315 17.4869V17.4881" stroke="#3A3A3A" stroke-width="0.00064"/>
<g id="Vector_8">
<path d="M19.2272 8.06981C19.1793 8.00633 19.128 7.94602 19.076 7.88667C19.1032 7.68852 19.119 7.48673 19.119 7.28178C19.1191 6.73859 19.0202 6.18543 18.814 5.67487C18.5783 5.08949 18.2293 4.62515 17.8218 4.31049C17.5367 4.09012 17.2232 3.94324 16.8982 3.87475C16.8194 3.50796 16.6957 3.15878 16.5296 2.84188C16.253 2.31411 15.8597 1.87704 15.3785 1.60631C15.0343 1.4127 14.6731 1.31975 14.3183 1.31975C14.3183 1.31975 14.3074 1.31929 14.2875 1.32159C13.837 1.32843 13.3985 1.48302 13.0105 1.7655C12.8588 1.52654 12.6833 1.31387 12.4881 1.13477C12.0601 0.74167 11.5368 0.50858 10.9769 0.501328C10.9704 0.500868 10.9626 0.50046 10.9531 0.5C10.9519 0.5 10.9507 0.5 10.9493 0.5C10.9484 0.5 10.9467 0.5 10.9459 0.5C10.9407 0.5 10.9344 0.50046 10.9265 0.500868C10.4389 0.505873 9.97815 0.681815 9.58451 0.986456C9.41389 1.11796 9.25818 1.27618 9.11529 1.45213C8.70748 1.11975 8.22556 0.925681 7.71228 0.922514L7.71041 0.922106H7.69826C7.69791 0.922106 7.69857 0.922106 7.69826 0.922106C7.69755 0.922106 7.69599 0.922106 7.69517 0.922106C7.68892 0.922106 7.68111 0.922514 7.67123 0.923434C7.12517 0.930226 6.6131 1.15152 6.19091 1.52695C5.94622 1.74415 5.73208 2.01304 5.55501 2.32085C5.33099 2.24154 5.09708 2.19848 4.8581 2.19848C4.65923 2.19848 4.45755 2.22795 4.25677 2.28781C3.66544 2.46508 3.16036 2.88902 2.7984 3.45535C2.54438 3.85208 2.36129 4.31999 2.26071 4.82468C1.87504 4.99567 1.5116 5.28223 1.20762 5.68707C1.20746 5.68753 1.20711 5.68799 1.20676 5.68845C0.696955 6.36811 0.440314 7.25727 0.440509 8.14009V8.14142V8.14326C0.440509 8.14326 0.440509 8.14412 0.440509 8.14504V8.15454C0.441173 8.46148 0.473087 8.76755 0.535001 9.06499C0.187461 9.6731 0.00019549 10.4117 1.77151e-07 11.1676C-0.000156073 11.7271 0.103047 12.2961 0.317501 12.8207C0.558517 13.4097 0.912971 13.8763 1.32532 14.1923C1.61453 14.414 1.93204 14.5605 2.26094 14.6294C2.4361 15.2447 2.73641 15.7757 3.12067 16.1688C3.57774 16.6372 4.15434 16.9142 4.77216 16.9142C4.83634 16.9142 4.90032 16.9116 4.96427 16.9052H4.96583H4.96689C5.23963 16.8793 5.5011 16.7991 5.74454 16.6753C5.90634 17.0144 6.1097 17.3141 6.34591 17.5613C6.80283 18.0396 7.38388 18.3253 8.00673 18.329C8.009 18.3294 8.01088 18.3294 8.01283 18.3294C8.01494 18.3294 8.01697 18.3294 8.01892 18.3294H8.01998H8.02275C8.02365 18.3294 8.024 18.3294 8.02486 18.3294L8.03162 18.329H8.03353C8.0833 18.3285 8.13326 18.3258 8.18299 18.3217L8.21299 18.3208C8.43595 18.2994 8.65135 18.2427 8.85545 18.1548C9.1126 18.6541 9.47068 19.0753 9.91373 19.3546C10.2876 19.5904 10.6862 19.7033 11.0776 19.7033C11.4587 19.7033 11.8315 19.595 12.1735 19.3945C12.6704 20.0846 13.3712 20.499 14.1249 20.5C14.2902 20.5 14.4573 20.48 14.6245 20.4388C15.2666 20.281 15.8168 19.8316 16.2018 19.2182C16.4532 18.8187 16.6339 18.3472 16.7307 17.8384C17.1748 17.7813 17.6154 17.5791 18.0048 17.2209C18.3754 16.8808 18.6626 16.4364 18.855 15.9404C19.0475 15.4448 19.1467 14.8979 19.1467 14.3461C19.1467 13.9784 19.1009 13.6093 19.0109 13.2534C19.2421 13.0072 19.4465 12.707 19.6095 12.3556C19.8731 11.7888 20 11.1568 20 10.5355C19.9999 9.62734 19.7306 8.73635 19.2272 8.06981ZM18.7999 11.7126C18.5278 12.2984 18.0893 12.663 17.6102 12.7714C17.4628 12.8044 17.364 12.9876 17.3893 13.1798C17.4146 13.3726 17.5545 13.5018 17.7018 13.4687C17.8119 13.4442 17.9203 13.4084 18.0266 13.3631C18.1423 13.6759 18.1994 14.0115 18.1994 14.3461C18.1996 14.7038 18.135 15.0593 18.0105 15.3799C17.8858 15.7005 17.702 15.9856 17.4606 16.2079C17.1566 16.4862 16.8116 16.6191 16.4677 16.6195C16.4408 16.6195 16.4139 16.6168 16.3871 16.615C16.3814 16.5561 16.3758 16.4976 16.3675 16.4391C16.3082 16.0288 16.1861 15.6529 16.0184 15.3269L15.9979 15.2869L15.9702 15.2556C15.765 15.0262 15.493 14.6489 15.283 14.2645C15.1777 14.0727 15.0877 13.8786 15.0272 13.7059C14.966 13.5331 14.9379 13.3821 14.9389 13.2928C14.9389 13.2529 14.9435 13.2261 14.9485 13.208C14.9539 13.1903 14.9589 13.1799 14.9695 13.1654C15.0751 13.0276 15.0751 12.8031 14.9695 12.6653C14.8637 12.527 14.6924 12.527 14.5867 12.6653C14.5209 12.7514 14.4711 12.8548 14.4406 12.9636C14.4101 13.0725 14.3978 13.1845 14.3978 13.2928C14.3988 13.5381 14.4555 13.7703 14.5353 14.0006C14.6562 14.3443 14.8365 14.6857 15.0312 14.9972C15.2145 15.2901 15.4096 15.5527 15.5842 15.754C15.7043 15.9961 15.7921 16.2691 15.8355 16.5697C15.8537 16.6962 15.8637 16.8218 15.8651 16.9428L15.8653 16.9447C15.8655 16.961 15.8656 16.9769 15.8656 16.9932C15.8656 17.5283 15.7201 18.0338 15.4699 18.4323C15.2193 18.8305 14.8668 19.1188 14.4494 19.2217C14.3402 19.2485 14.2318 19.2617 14.1252 19.2617C13.5512 19.2621 13.0203 18.8858 12.7012 18.2854C12.8729 18.0578 13.0192 17.7903 13.1312 17.4874C13.2701 17.112 13.343 16.7148 13.3563 16.3221C13.3629 16.1262 13.2471 15.9612 13.098 15.9526C12.9485 15.944 12.8221 16.0954 12.8155 16.2904C12.8052 16.591 12.7501 16.8921 12.6438 17.1791C12.5303 17.4865 12.3714 17.7445 12.1826 17.9481L12.1815 17.949C11.8714 18.2818 11.4787 18.465 11.0777 18.465C10.8249 18.465 10.5687 18.3924 10.3251 18.2392C9.87389 17.9544 9.56057 17.4511 9.42201 16.8726C9.36912 16.6531 9.34154 16.4228 9.34154 16.1911C9.34154 15.8606 9.39705 15.5259 9.51475 15.2058C9.57978 15.0299 9.5231 14.8186 9.3885 14.7338C9.25396 14.649 9.09217 14.7229 9.02732 14.8989C8.87365 15.3151 8.80033 15.7572 8.80033 16.1912C8.80033 16.4015 8.81873 16.6097 8.85201 16.8137C8.64064 16.9647 8.4022 17.0608 8.14451 17.0858C8.10256 17.0894 8.06041 17.0912 8.01951 17.0912C7.61322 17.0912 7.23677 16.9071 6.93747 16.5943C6.67701 16.3222 6.47743 15.9536 6.37079 15.5269C6.56134 15.2812 6.71915 14.9937 6.83447 14.6749C6.89826 14.4985 6.84052 14.2873 6.70544 14.2038C6.57036 14.1204 6.40892 14.1956 6.34509 14.3725C6.23794 14.669 6.08259 14.932 5.8913 15.1429C5.62044 15.4416 5.27833 15.6344 4.89739 15.6702C4.85559 15.6738 4.81345 15.676 4.77235 15.676C3.91298 15.6765 3.1795 14.8477 3.05567 13.7368L3.05536 13.7341L3.05501 13.7313C3.0484 13.6787 3.04372 13.6234 3.04059 13.5663C3.03766 13.5109 3.03614 13.4565 3.03614 13.4021C3.03614 13.2588 3.04637 13.1187 3.06575 12.9823C3.09282 12.79 2.99571 12.6055 2.84868 12.5696C2.7018 12.5342 2.56067 12.6612 2.53344 12.8535C2.50829 13.0312 2.49493 13.2149 2.49493 13.4021L2.49547 13.4225C2.25219 13.3871 2.01602 13.2861 1.80446 13.1237C1.53758 12.9192 1.30992 12.6204 1.15281 12.2368C1.01305 11.895 0.947346 11.5295 0.94715 11.1681C0.94715 10.702 1.05781 10.2441 1.26258 9.8614C1.34094 10.0065 1.43028 10.1443 1.53032 10.2726C1.75836 10.5656 2.02293 10.7828 2.30336 10.9242C2.44262 10.995 2.59938 10.9043 2.65329 10.722C2.70723 10.5397 2.6379 10.3348 2.49864 10.2645C2.28465 10.1561 2.08387 9.99153 1.90957 9.76753C1.75629 9.57116 1.6368 9.34681 1.55094 9.10692C1.44223 8.80315 1.38762 8.47348 1.38762 8.14341C1.38778 7.56891 1.552 6.99808 1.88336 6.55509C2.16512 6.18012 2.51977 5.96061 2.88837 5.89488L2.89008 5.89443C2.96797 5.88084 3.04633 5.87359 3.12505 5.87405C3.5643 5.87451 4.00177 6.08947 4.34044 6.52245C4.44724 6.65891 4.61856 6.65667 4.72313 6.51704C4.82771 6.37741 4.82579 6.15341 4.71899 6.01689C4.28806 5.46507 3.72923 5.18305 3.16946 5.16901C3.23329 4.8303 3.35501 4.51565 3.52493 4.25038C3.76005 3.88313 4.08349 3.61107 4.46856 3.49498C4.59935 3.45597 4.72974 3.43697 4.85802 3.43697C5.08482 3.43697 5.30525 3.4959 5.50896 3.60382C5.45103 3.86724 5.41915 4.14523 5.41915 4.4322C5.41915 4.6276 5.54036 4.78587 5.68982 4.78587C5.83927 4.78587 5.96032 4.62765 5.96032 4.4322C5.96032 4.1225 6.00802 3.8269 6.09318 3.55847C6.22388 3.14857 6.44482 2.79852 6.72279 2.55139C7.0013 2.3043 7.33544 2.161 7.69783 2.16054C8.21924 2.161 8.68502 2.45936 9.00424 2.93499C9.27264 3.33442 9.43498 3.85723 9.43517 4.43215C9.43517 4.62755 9.55619 4.78582 9.70584 4.78582C9.85533 4.78582 9.97635 4.6276 9.97635 4.43215C9.97654 3.77879 9.8149 3.17211 9.54111 2.68101C9.68123 2.42713 9.85982 2.21217 10.0665 2.05257C10.3252 1.85263 10.6256 1.73838 10.9488 1.73838C11.32 1.73838 11.6616 1.88981 11.9438 2.14874C12.2259 2.40716 12.4468 2.77309 12.5715 3.19974C12.6451 3.45229 12.6853 3.72348 12.6854 4.01004C12.6854 4.20544 12.8065 4.36376 12.956 4.36376C13.1054 4.36376 13.2266 4.20549 13.2266 4.01004C13.2266 3.71801 13.1932 3.436 13.1332 3.1694C13.4536 2.77901 13.8789 2.55818 14.3178 2.55818C14.5471 2.55818 14.7794 2.61804 15.0042 2.74408C15.3175 2.92048 15.5691 3.20112 15.7486 3.54299C15.9279 3.8844 16.0337 4.28659 16.0516 4.70191C16.0533 4.74455 16.0543 4.7876 16.0543 4.83066C16.0541 5.13034 16.0089 5.43376 15.9125 5.72757C15.8535 5.90714 15.9168 6.11521 16.0541 6.19227C16.1915 6.2698 16.3506 6.1864 16.4096 6.00683C16.51 5.70214 16.5677 5.38611 16.5873 5.07146C16.8526 5.09459 17.111 5.19975 17.3399 5.37661C17.6012 5.57885 17.8235 5.87354 17.9759 6.25172C18.1093 6.58185 18.1717 6.93409 18.1718 7.28188C18.1718 7.44148 18.1578 7.59924 18.132 7.75389C17.9686 7.67135 17.8009 7.61467 17.6318 7.58341C17.4839 7.55619 17.3471 7.69092 17.3263 7.88494C17.3055 8.07814 17.4085 8.2572 17.5566 8.28442C17.7264 8.31572 17.8937 8.37967 18.0543 8.47849C18.0827 8.53881 18.1246 8.58911 18.1782 8.61904C18.2117 8.63763 18.2464 8.64672 18.2807 8.64713C18.3806 8.7342 18.4715 8.8317 18.5526 8.93961L18.549 8.93466L18.5533 8.94053C18.8774 9.36856 19.0529 9.94669 19.0527 10.5356C19.0527 10.9377 18.9716 11.3435 18.7999 11.7126Z" fill="#3A3A3A"/>
<path d="M7.69826 0.922106H7.71041L7.71228 0.922514C8.22556 0.925681 8.70748 1.11975 9.11529 1.45213C9.25818 1.27618 9.41389 1.11797 9.58451 0.986456C9.97815 0.681815 10.4389 0.505873 10.9265 0.500868C10.9344 0.50046 10.9407 0.5 10.9459 0.5C10.9467 0.5 10.9484 0.5 10.9493 0.5C10.9507 0.5 10.9519 0.5 10.9531 0.5C10.9626 0.50046 10.9704 0.500868 10.9769 0.501328C11.5368 0.50858 12.0601 0.74167 12.4881 1.13477C12.6833 1.31387 12.8588 1.52654 13.0105 1.7655C13.3985 1.48302 13.837 1.32843 14.2875 1.32159C14.3074 1.31929 14.3183 1.31975 14.3183 1.31975C14.6731 1.31975 15.0343 1.4127 15.3785 1.60631C15.8597 1.87704 16.253 2.31411 16.5296 2.84188C16.6957 3.15878 16.8194 3.50796 16.8982 3.87475C17.2232 3.94324 17.5367 4.09012 17.8218 4.31049C18.2293 4.62515 18.5783 5.08949 18.814 5.67487C19.0202 6.18543 19.1191 6.73859 19.119 7.28178C19.119 7.48673 19.1032 7.68852 19.076 7.88667C19.128 7.94602 19.1793 8.00633 19.2272 8.06981C19.7306 8.73635 19.9999 9.62734 20 10.5355C20 11.1568 19.8731 11.7888 19.6095 12.3556C19.4465 12.707 19.2421 13.0072 19.0109 13.2534C19.1009 13.6093 19.1467 13.9784 19.1467 14.3461C19.1467 14.8979 19.0475 15.4448 18.855 15.9404C18.6626 16.4364 18.3754 16.8808 18.0048 17.2209C17.6154 17.5791 17.1748 17.7813 16.7307 17.8384C16.6339 18.3472 16.4532 18.8187 16.2018 19.2182C15.8168 19.8316 15.2666 20.281 14.6245 20.4388C14.4573 20.48 14.2902 20.5 14.1249 20.5C13.3712 20.499 12.6704 20.0846 12.1735 19.3945C11.8315 19.595 11.4587 19.7033 11.0776 19.7033C10.6862 19.7033 10.2876 19.5904 9.91373 19.3546C9.47068 19.0753 9.1126 18.6541 8.85545 18.1548C8.65135 18.2427 8.43595 18.2994 8.21299 18.3208L8.18299 18.3217C8.13326 18.3258 8.0833 18.3285 8.03353 18.329H8.03162L8.02486 18.3294C8.024 18.3294 8.02365 18.3294 8.02275 18.3294H8.01998H8.01892C8.01697 18.3294 8.01494 18.3294 8.01283 18.3294C8.01088 18.3294 8.009 18.3294 8.00673 18.329C7.38388 18.3253 6.80283 18.0396 6.34591 17.5613C6.1097 17.3141 5.90634 17.0144 5.74454 16.6753C5.5011 16.7991 5.23963 16.8793 4.96689 16.9052H4.96583H4.96427C4.90032 16.9116 4.83634 16.9142 4.77216 16.9142C4.15434 16.9142 3.57774 16.6372 3.12067 16.1688C2.73641 15.7757 2.4361 15.2447 2.26094 14.6294C1.93204 14.5605 1.61453 14.414 1.32532 14.1923C0.912971 13.8763 0.558517 13.4097 0.317501 12.8207C0.103047 12.2961 -0.000156073 11.7271 1.77151e-07 11.1676C0.00019549 10.4117 0.187461 9.6731 0.535001 9.06499C0.473087 8.76755 0.441173 8.46148 0.440509 8.15454V8.14504C0.440509 8.14412 0.440509 8.14326 0.440509 8.14326V8.14142V8.14009C0.440314 7.25727 0.696955 6.36811 1.20676 5.68845C1.20711 5.68799 1.20746 5.68753 1.20762 5.68707C1.5116 5.28223 1.87504 4.99567 2.26071 4.82468C2.36129 4.31999 2.54438 3.85208 2.7984 3.45535C3.16036 2.88902 3.66544 2.46508 4.25677 2.28781C4.45755 2.22795 4.65923 2.19848 4.8581 2.19848C5.09708 2.19848 5.33099 2.24154 5.55501 2.32085C5.73208 2.01304 5.94622 1.74415 6.19091 1.52695C6.6131 1.15152 7.12517 0.930226 7.67123 0.923434C7.68111 0.922514 7.68892 0.922106 7.69517 0.922106C7.69599 0.922106 7.69755 0.922106 7.69826 0.922106ZM7.69826 0.922106C7.69791 0.922106 7.69857 0.922106 7.69826 0.922106ZM18.7999 11.7126C18.5278 12.2984 18.0893 12.663 17.6102 12.7714C17.4628 12.8044 17.364 12.9876 17.3893 13.1798C17.4146 13.3726 17.5545 13.5018 17.7018 13.4687C17.8119 13.4442 17.9203 13.4084 18.0266 13.3631C18.1423 13.6759 18.1994 14.0115 18.1994 14.3461C18.1996 14.7038 18.135 15.0593 18.0105 15.3799C17.8858 15.7005 17.702 15.9856 17.4606 16.2079C17.1566 16.4862 16.8116 16.6191 16.4677 16.6195C16.4408 16.6195 16.4139 16.6168 16.3871 16.615C16.3814 16.5561 16.3758 16.4976 16.3675 16.4391C16.3082 16.0288 16.1861 15.6529 16.0184 15.3269L15.9979 15.2869L15.9702 15.2556C15.765 15.0262 15.493 14.6489 15.283 14.2645C15.1777 14.0727 15.0877 13.8786 15.0272 13.7059C14.966 13.5331 14.9379 13.3821 14.9389 13.2928C14.9389 13.2529 14.9435 13.2261 14.9485 13.208C14.9539 13.1903 14.9589 13.1799 14.9695 13.1654C15.0751 13.0276 15.0751 12.8031 14.9695 12.6653C14.8637 12.527 14.6924 12.527 14.5867 12.6653C14.5209 12.7514 14.4711 12.8548 14.4406 12.9636C14.4101 13.0725 14.3978 13.1845 14.3978 13.2928C14.3988 13.5381 14.4555 13.7703 14.5353 14.0006C14.6562 14.3443 14.8365 14.6857 15.0312 14.9972C15.2145 15.2901 15.4096 15.5527 15.5842 15.754C15.7043 15.9961 15.7921 16.2691 15.8355 16.5697C15.8537 16.6962 15.8637 16.8218 15.8651 16.9428L15.8653 16.9447C15.8655 16.961 15.8656 16.9769 15.8656 16.9932C15.8656 17.5283 15.7201 18.0338 15.4699 18.4323C15.2193 18.8305 14.8668 19.1188 14.4494 19.2217C14.3402 19.2485 14.2318 19.2617 14.1252 19.2617C13.5512 19.2621 13.0203 18.8858 12.7012 18.2854C12.8729 18.0578 13.0192 17.7903 13.1312 17.4874C13.2701 17.112 13.343 16.7148 13.3563 16.3221C13.3629 16.1262 13.2471 15.9612 13.098 15.9526C12.9485 15.944 12.8221 16.0954 12.8155 16.2904C12.8052 16.591 12.7501 16.8921 12.6438 17.1791C12.5303 17.4865 12.3714 17.7445 12.1826 17.9481L12.1815 17.949C11.8714 18.2818 11.4787 18.465 11.0777 18.465C10.8249 18.465 10.5687 18.3924 10.3251 18.2392C9.87389 17.9544 9.56057 17.4511 9.42201 16.8726C9.36912 16.6531 9.34154 16.4228 9.34154 16.1911C9.34154 15.8606 9.39705 15.5259 9.51475 15.2058C9.57978 15.0299 9.5231 14.8186 9.3885 14.7338C9.25396 14.649 9.09217 14.7229 9.02732 14.8989C8.87365 15.3151 8.80033 15.7572 8.80033 16.1912C8.80033 16.4015 8.81873 16.6097 8.85201 16.8137C8.64064 16.9647 8.4022 17.0608 8.14451 17.0858C8.10256 17.0894 8.06041 17.0912 8.01951 17.0912C7.61322 17.0912 7.23677 16.9071 6.93747 16.5943C6.67701 16.3222 6.47743 15.9536 6.37079 15.5269C6.56134 15.2812 6.71915 14.9937 6.83447 14.6749C6.89826 14.4985 6.84052 14.2873 6.70544 14.2038C6.57036 14.1204 6.40892 14.1956 6.34509 14.3725C6.23794 14.669 6.08259 14.932 5.8913 15.1429C5.62044 15.4416 5.27833 15.6344 4.89739 15.6702C4.85559 15.6738 4.81345 15.676 4.77235 15.676C3.91298 15.6765 3.1795 14.8477 3.05567 13.7368L3.05536 13.7341L3.05501 13.7313C3.0484 13.6787 3.04372 13.6234 3.04059 13.5663C3.03766 13.5109 3.03614 13.4565 3.03614 13.4021C3.03614 13.2588 3.04637 13.1187 3.06575 12.9823C3.09282 12.79 2.99571 12.6055 2.84868 12.5696C2.7018 12.5342 2.56067 12.6612 2.53344 12.8535C2.50829 13.0312 2.49493 13.2149 2.49493 13.4021L2.49547 13.4225C2.25219 13.3871 2.01602 13.2861 1.80446 13.1237C1.53758 12.9192 1.30992 12.6204 1.15281 12.2368C1.01305 11.895 0.947346 11.5295 0.94715 11.1681C0.94715 10.702 1.05781 10.2441 1.26258 9.8614C1.34094 10.0065 1.43028 10.1443 1.53032 10.2726C1.75836 10.5656 2.02293 10.7828 2.30336 10.9242C2.44262 10.995 2.59938 10.9043 2.65329 10.722C2.70723 10.5397 2.6379 10.3348 2.49864 10.2645C2.28465 10.1561 2.08387 9.99153 1.90957 9.76753C1.75629 9.57116 1.6368 9.34681 1.55094 9.10692C1.44223 8.80315 1.38762 8.47348 1.38762 8.14341C1.38778 7.56891 1.552 6.99808 1.88336 6.55509C2.16512 6.18012 2.51977 5.96061 2.88837 5.89488L2.89008 5.89443C2.96797 5.88084 3.04633 5.87359 3.12505 5.87405C3.5643 5.87451 4.00177 6.08947 4.34044 6.52245C4.44724 6.65891 4.61856 6.65667 4.72313 6.51704C4.82771 6.37741 4.82579 6.15341 4.71899 6.01689C4.28806 5.46507 3.72923 5.18305 3.16946 5.16901C3.23329 4.8303 3.35501 4.51565 3.52493 4.25038C3.76005 3.88313 4.08349 3.61107 4.46856 3.49498C4.59935 3.45597 4.72974 3.43697 4.85802 3.43697C5.08482 3.43697 5.30525 3.4959 5.50896 3.60382C5.45103 3.86724 5.41915 4.14523 5.41915 4.4322C5.41915 4.6276 5.54036 4.78587 5.68982 4.78587C5.83927 4.78587 5.96032 4.62765 5.96032 4.4322C5.96032 4.1225 6.00802 3.8269 6.09318 3.55847C6.22388 3.14857 6.44482 2.79852 6.72279 2.55139C7.0013 2.3043 7.33544 2.161 7.69783 2.16054C8.21924 2.161 8.68502 2.45936 9.00424 2.93499C9.27264 3.33442 9.43498 3.85723 9.43517 4.43215C9.43517 4.62755 9.55619 4.78582 9.70584 4.78582C9.85533 4.78582 9.97635 4.6276 9.97635 4.43215C9.97654 3.77879 9.8149 3.17211 9.54111 2.68101C9.68123 2.42713 9.85982 2.21217 10.0665 2.05257C10.3252 1.85263 10.6256 1.73838 10.9488 1.73838C11.32 1.73838 11.6616 1.88981 11.9438 2.14874C12.2259 2.40716 12.4468 2.77309 12.5715 3.19974C12.6451 3.45229 12.6853 3.72348 12.6854 4.01004C12.6854 4.20544 12.8065 4.36376 12.956 4.36376C13.1054 4.36376 13.2266 4.20549 13.2266 4.01004C13.2266 3.71801 13.1932 3.436 13.1332 3.1694C13.4536 2.77901 13.8789 2.55818 14.3178 2.55818C14.5471 2.55818 14.7794 2.61804 15.0042 2.74408C15.3175 2.92048 15.5691 3.20112 15.7486 3.54299C15.9279 3.8844 16.0337 4.28659 16.0516 4.70191C16.0533 4.74455 16.0543 4.7876 16.0543 4.83066C16.0541 5.13034 16.0089 5.43376 15.9125 5.72757C15.8535 5.90714 15.9168 6.11521 16.0541 6.19227C16.1915 6.2698 16.3506 6.1864 16.4096 6.00683C16.51 5.70214 16.5677 5.38611 16.5873 5.07146C16.8526 5.09459 17.111 5.19975 17.3399 5.37661C17.6012 5.57885 17.8235 5.87354 17.9759 6.25172C18.1093 6.58185 18.1717 6.93409 18.1718 7.28188C18.1718 7.44148 18.1578 7.59924 18.132 7.75389C17.9686 7.67135 17.8009 7.61467 17.6318 7.58341C17.4839 7.55619 17.3471 7.69092 17.3263 7.88494C17.3055 8.07814 17.4085 8.2572 17.5566 8.28442C17.7264 8.31572 17.8937 8.37967 18.0543 8.47849C18.0827 8.53881 18.1246 8.58911 18.1782 8.61904C18.2117 8.63763 18.2464 8.64672 18.2807 8.64713C18.3806 8.7342 18.4715 8.8317 18.5526 8.93961L18.549 8.93466L18.5533 8.94053C18.8774 9.36856 19.0529 9.94669 19.0527 10.5356C19.0527 10.9377 18.9716 11.3435 18.7999 11.7126Z" stroke="#3A3A3A" stroke-width="0.00064"/>
</g>
</g>
<defs>
<clipPath id="clip0_182_39">
<rect width="20" height="20" fill="white" transform="translate(0 0.5)"/>
</clipPath>
</defs>
</svg>
