<svg width="20" height="21" viewBox="0 0 20 21" fill="none" xmlns="http://www.w3.org/2000/svg">
<g id="Quotes" clip-path="url(#clip0_182_48)">
<path id="Vector" fill-rule="evenodd" clip-rule="evenodd" d="M14.9648 7.99708C14.5268 7.99706 14.1488 7.99705 13.836 8.02387C13.5066 8.05207 13.1772 8.1141 12.8518 8.28329C12.1177 8.6649 11.5345 9.3968 11.2305 10.318C11.0957 10.7265 11.0462 11.1399 11.0238 11.5532C10.9748 12.4527 11.0024 13.3621 11.0024 14.2632C11.0024 16.3397 12.3437 18.023 13.9981 18.023H14.9967V18.3324C14.9967 20.2596 16.8534 21.2249 17.9393 19.8621C18.1679 19.5751 18.3964 19.2878 18.6254 19.0012C19.1054 18.4007 19.5315 17.8677 19.7616 17.1702C19.9917 16.4729 19.9908 15.718 19.9898 14.8673C19.9884 13.732 20.0341 12.5811 19.9424 11.4506C19.8924 10.8325 19.7809 10.2243 19.4847 9.668C19.2661 9.25744 18.9853 8.90503 18.6582 8.63069C18.2149 8.25898 17.7303 8.11924 17.2378 8.05633C16.4846 7.96016 15.7211 7.99708 14.9648 7.99708Z" fill="#3A3A3A" stroke="#3A3A3A" stroke-width="0.00064"/>
<path id="Vector_2" fill-rule="evenodd" clip-rule="evenodd" d="M3.97012 0.506969C3.53209 0.506957 3.15414 0.506944 2.84133 0.533726C2.51197 0.561924 2.18253 0.623972 1.85707 0.79316C1.12302 1.17475 0.539832 1.90668 0.235785 2.82791C0.100967 3.23638 0.0515375 3.64984 0.0290695 4.06319C-0.0198309 4.96263 0.00774991 5.87207 0.00774991 6.77318C0.00774991 8.8496 1.34898 10.5329 3.00348 10.5329H4.00206V10.8422C4.00206 12.7696 5.85875 13.7347 6.94462 12.372C7.17328 12.085 7.40168 11.7977 7.63069 11.5112C8.11077 10.9106 8.53677 10.3776 8.76694 9.68024C8.99701 8.98294 8.99611 8.22786 8.99512 7.3772C8.99372 6.24189 9.03935 5.09104 8.94778 3.96055C8.89765 3.3424 8.78631 2.73424 8.49003 2.1779C8.27155 1.76738 7.99064 1.41491 7.66356 1.1406C7.22027 0.768859 6.73569 0.629086 6.24315 0.566211C5.48992 0.470037 4.72646 0.506969 3.97012 0.506969Z" fill="#3A3A3A" stroke="#3A3A3A" stroke-width="0.00064"/>
</g>
<defs>
<clipPath id="clip0_182_48">
<rect width="20" height="20" fill="white" transform="translate(0 0.5)"/>
</clipPath>
</defs>
</svg>
