<svg width="20" height="21" viewBox="0 0 20 21" fill="none" xmlns="http://www.w3.org/2000/svg">
<g id="Studies" clip-path="url(#clip0_182_53)">
<path id="Vector" d="M19.68 1.96252H18.7469V0.865631C18.7469 0.663705 18.6036 0.5 18.4268 0.5H11.226C10.7645 0.5 10.3285 0.701536 10 1.05444C9.67159 0.701584 9.23557 0.5 8.77412 0.5H1.57315C1.39638 0.5 1.25315 0.663705 1.25315 0.865631V1.96252H0.320007C0.143235 1.96252 0 2.12623 0 2.32815V15.1665C0 16.1745 0.717754 16.9946 1.60003 16.9946H7.75995V19.7687H6.37326C6.19648 19.7687 6.05325 19.9324 6.05325 20.1344C6.05325 20.3363 6.19648 20.5 6.37326 20.5H13.6267C13.8035 20.5 13.9468 20.3363 13.9468 20.1344C13.9468 19.9324 13.8035 19.7687 13.6267 19.7687H12.24V18.0915C12.24 17.8896 12.0968 17.7259 11.92 17.7259C11.7433 17.7259 11.6 17.8896 11.6 18.0915V19.7687H8.39997V16.9946H18.4C19.2822 16.9946 20 16.1745 20 15.1665V2.32815C20 2.12623 19.8568 1.96252 19.68 1.96252ZM19.36 2.69378V13.0845H18.7469V2.69378H19.36ZM1.89316 1.23126H8.77408C9.16047 1.23126 9.51909 1.45132 9.7335 1.81993C9.79281 1.92191 9.89282 1.98319 10 1.98319C10.1072 1.98319 10.2072 1.92191 10.2665 1.81993C10.4809 1.45132 10.8396 1.23131 11.226 1.23131H18.1068V13.0846H1.89316V1.23126ZM1.25315 2.69378V13.0845H0.640014V2.69378H1.25315ZM18.4 16.2634H1.60003C1.0707 16.2634 0.640014 15.7713 0.640014 15.1665V13.8157H19.36V15.1665C19.36 15.7713 18.9293 16.2634 18.4 16.2634Z" fill="#3A3A3A" stroke="#3A3A3A" stroke-width="0.00064"/>
<path id="Vector_2" d="M9.9997 12.3533C10.1765 12.3533 10.3197 12.1896 10.3197 11.9876V3.07999C10.3197 2.87807 10.1765 2.71436 9.9997 2.71436C9.82293 2.71436 9.67969 2.87807 9.67969 3.07999V11.9876C9.67969 12.1896 9.82297 12.3533 9.9997 12.3533Z" fill="#3A3A3A" stroke="#3A3A3A" stroke-width="0.00064"/>
<path id="Vector_3" d="M3.30682 3.18133H8.2121C8.38887 3.18133 8.53211 3.01762 8.53211 2.8157C8.53211 2.61377 8.38887 2.45007 8.2121 2.45007H3.30682C3.13005 2.45007 2.98682 2.61377 2.98682 2.8157C2.98682 3.01762 3.13005 3.18133 3.30682 3.18133Z" fill="#3A3A3A" stroke="#3A3A3A" stroke-width="0.00064"/>
<path id="Vector_4" d="M3.30682 4.91815H8.2121C8.38887 4.91815 8.53211 4.75445 8.53211 4.55252C8.53211 4.3506 8.38887 4.18689 8.2121 4.18689H3.30682C3.13005 4.18689 2.98682 4.3506 2.98682 4.55252C2.98682 4.75445 3.13005 4.91815 3.30682 4.91815Z" fill="#3A3A3A" stroke="#3A3A3A" stroke-width="0.00064"/>
<path id="Vector_5" d="M3.30682 6.65509H5.75944C5.93621 6.65509 6.07945 6.49139 6.07945 6.28946C6.07945 6.08754 5.93621 5.92383 5.75944 5.92383H3.30682C3.13005 5.92383 2.98682 6.08754 2.98682 6.28946C2.98682 6.49139 3.13005 6.65509 3.30682 6.65509Z" fill="#3A3A3A" stroke="#3A3A3A" stroke-width="0.00064"/>
<path id="Vector_6" d="M3.30682 8.39203H8.2121C8.38887 8.39203 8.53211 8.22832 8.53211 8.0264C8.53211 7.82447 8.38887 7.66077 8.2121 7.66077H3.30682C3.13005 7.66077 2.98682 7.82447 2.98682 8.0264C2.98682 8.22832 3.13005 8.39203 3.30682 8.39203Z" fill="#3A3A3A" stroke="#3A3A3A" stroke-width="0.00064"/>
<path id="Vector_7" d="M3.30682 10.1288H8.2121C8.38887 10.1288 8.53211 9.96513 8.53211 9.76321C8.53211 9.56128 8.38887 9.39758 8.2121 9.39758H3.30682C3.13005 9.39758 2.98682 9.56128 2.98682 9.76321C2.98682 9.96513 3.13005 10.1288 3.30682 10.1288Z" fill="#3A3A3A" stroke="#3A3A3A" stroke-width="0.00064"/>
<path id="Vector_8" d="M3.30682 11.8658H5.75944C5.93621 11.8658 6.07945 11.702 6.07945 11.5001C6.07945 11.2982 5.93621 11.1345 5.75944 11.1345H3.30682C3.13005 11.1345 2.98682 11.2982 2.98682 11.5001C2.98682 11.702 3.13005 11.8658 3.30682 11.8658Z" fill="#3A3A3A" stroke="#3A3A3A" stroke-width="0.00064"/>
<path id="Vector_9" d="M11.7878 3.18133H16.6931C16.8698 3.18133 17.0131 3.01762 17.0131 2.8157C17.0131 2.61377 16.8698 2.45007 16.6931 2.45007H11.7878C11.6111 2.45007 11.4678 2.61377 11.4678 2.8157C11.4678 3.01762 11.6111 3.18133 11.7878 3.18133Z" fill="#3A3A3A" stroke="#3A3A3A" stroke-width="0.00064"/>
<path id="Vector_10" d="M11.7878 4.91815H16.6931C16.8698 4.91815 17.0131 4.75445 17.0131 4.55252C17.0131 4.3506 16.8698 4.18689 16.6931 4.18689H11.7878C11.6111 4.18689 11.4678 4.3506 11.4678 4.55252C11.4678 4.75445 11.6111 4.91815 11.7878 4.91815Z" fill="#3A3A3A" stroke="#3A3A3A" stroke-width="0.00064"/>
<path id="Vector_11" d="M11.7878 6.65509H14.2404C14.4172 6.65509 14.5604 6.49139 14.5604 6.28946C14.5604 6.08754 14.4172 5.92383 14.2404 5.92383H11.7878C11.6111 5.92383 11.4678 6.08754 11.4678 6.28946C11.4678 6.49139 11.6111 6.65509 11.7878 6.65509Z" fill="#3A3A3A" stroke="#3A3A3A" stroke-width="0.00064"/>
<path id="Vector_12" d="M11.7878 8.39203H16.6931C16.8698 8.39203 17.0131 8.22832 17.0131 8.0264C17.0131 7.82447 16.8698 7.66077 16.6931 7.66077H11.7878C11.6111 7.66077 11.4678 7.82447 11.4678 8.0264C11.4678 8.22832 11.6111 8.39203 11.7878 8.39203Z" fill="#3A3A3A" stroke="#3A3A3A" stroke-width="0.00064"/>
<path id="Vector_13" d="M11.7878 10.1288H16.6931C16.8698 10.1288 17.0131 9.96513 17.0131 9.76321C17.0131 9.56128 16.8698 9.39758 16.6931 9.39758H11.7878C11.6111 9.39758 11.4678 9.56128 11.4678 9.76321C11.4678 9.96513 11.6111 10.1288 11.7878 10.1288Z" fill="#3A3A3A" stroke="#3A3A3A" stroke-width="0.00064"/>
<path id="Vector_14" d="M11.7878 11.8658H14.2404C14.4172 11.8658 14.5604 11.702 14.5604 11.5001C14.5604 11.2982 14.4172 11.1345 14.2404 11.1345H11.7878C11.6111 11.1345 11.4678 11.2982 11.4678 11.5001C11.4678 11.702 11.6111 11.8658 11.7878 11.8658Z" fill="#3A3A3A" stroke="#3A3A3A" stroke-width="0.00064"/>
</g>
<defs>
<clipPath id="clip0_182_53">
<rect width="20" height="20" fill="white" transform="translate(0 0.5)"/>
</clipPath>
</defs>
</svg>
