<svg width="20" height="21" viewBox="0 0 20 21" fill="none" xmlns="http://www.w3.org/2000/svg">
<g id="Today" clip-path="url(#clip0_182_51)">
<path id="Vector" fill-rule="evenodd" clip-rule="evenodd" d="M18.1186 0.903877L9.42712 12.008L6.5812 8.75264C6.49049 8.64771 6.37995 8.56175 6.25593 8.49969C6.13191 8.43763 5.99685 8.4007 5.85851 8.39103C5.72017 8.38135 5.58129 8.39911 5.44984 8.4433C5.31838 8.48748 5.19696 8.55722 5.09253 8.6485C4.98811 8.73977 4.90275 8.85079 4.84135 8.97518C4.77996 9.09956 4.74375 9.23485 4.73479 9.37328C4.72583 9.51171 4.74431 9.65055 4.78917 9.78181C4.83402 9.91307 4.90436 10.0342 4.99615 10.1382L8.26202 13.8736C8.41498 14.0484 8.60463 14.1874 8.81746 14.2805C9.03028 14.3737 9.26103 14.4187 9.49324 14.4123C9.72545 14.406 9.9534 14.3485 10.1608 14.2439C10.3683 14.1393 10.5501 13.9902 10.6933 13.8072L19.7762 2.202C19.8614 2.09312 19.9244 1.96852 19.9614 1.83531C19.9985 1.70211 20.009 1.5629 19.9923 1.42564C19.9756 1.28838 19.932 1.15576 19.864 1.03534C19.7961 0.914927 19.7051 0.809081 19.5963 0.723844C19.4874 0.638608 19.3628 0.575652 19.2297 0.53857C19.0965 0.501488 18.9573 0.491006 18.8201 0.507724C18.6829 0.524441 18.5503 0.56803 18.43 0.636002C18.3096 0.703974 18.2038 0.794998 18.1186 0.903877ZM17.8923 9.97181C17.6131 9.97181 17.3454 10.0827 17.1481 10.2802C16.9507 10.4776 16.8398 10.7454 16.8398 11.0246V17.4226C16.8398 17.9059 16.8177 18.0227 16.7535 18.1427C16.717 18.2137 16.6592 18.2715 16.5882 18.308C16.4693 18.3712 16.3514 18.3944 15.8683 18.3944H3.07642C2.59333 18.3944 2.4765 18.3712 2.35652 18.308C2.28553 18.2715 2.22775 18.2137 2.19128 18.1427C2.12813 18.0238 2.10497 17.9059 2.10497 17.4226V4.1813C2.10497 4.04169 2.16042 3.9078 2.25911 3.80907C2.3578 3.71035 2.49165 3.65489 2.63122 3.65489L11.5774 3.6591C11.8565 3.6591 12.1242 3.54818 12.3216 3.35074C12.519 3.1533 12.6298 2.88551 12.6298 2.60629C12.6298 2.32706 12.519 2.05927 12.3216 1.86183C12.1242 1.66439 11.8565 1.55347 11.5774 1.55347L2.63122 1.54925C1.93337 1.54925 1.26411 1.82656 0.770666 2.32016C0.277217 2.81377 0 3.48324 0 4.1813V17.4226C0 18.2228 0.0863039 18.6702 0.335743 19.1355C0.5715 19.5767 0.923031 19.9283 1.36402 20.1642C1.82922 20.4137 2.27548 20.5 3.07642 20.5H15.8683C16.6682 20.5 17.1155 20.4137 17.5807 20.1642C18.0228 19.9283 18.3743 19.5767 18.6101 19.1355C18.8585 18.6702 18.9448 18.2238 18.9448 17.4226V11.0246C18.9448 10.7454 18.8339 10.4776 18.6365 10.2802C18.4391 10.0827 18.1714 9.97181 17.8923 9.97181Z" fill="#3A3A3A" stroke="#3A3A3A" stroke-width="0.00064"/>
</g>
<defs>
<clipPath id="clip0_182_51">
<rect width="20" height="20" fill="white" transform="translate(0 0.5)"/>
</clipPath>
</defs>
</svg>
